M48
;Layer_Color=9474304
;FILE_FORMAT=2:5
INCH,LZ
;TYPE=PLATED
T1F00S00C0.02362
T3F00S00C0.02799
T4F00S00C0.02800
T5F00S00C0.03543
T6F00S00C0.07087
%
T01
X002984Y002196
X002968Y003224
X004954Y003348
X002818Y00538
X010804Y005198
X013476Y007432
T03
X007574Y003664
T04
X021696Y001278
X022828
X023916Y000802
X025092Y001278
X0075Y000564
X0044741Y0007208
X005208Y001746
X007552Y00203
X00135Y00335
Y00455
X00285Y00645
X016184Y005416
X016818Y004762
X015532Y004764
X02167Y002714
X022802
X023908Y00314
X025066Y002714
T05
X00075Y00075
X00175
X00275
T06
X02666Y0023
Y005566
M30
