G04*
G04 #@! TF.GenerationSoftware,Altium Limited,Altium Designer,22.1.2 (22)*
G04*
G04 Layer_Physical_Order=1*
G04 Layer_Color=255*
%FSLAX25Y25*%
%MOIN*%
G70*
G04*
G04 #@! TF.SameCoordinates,174BC2DA-B873-4BC2-8B21-C8E9C5FF9B9E*
G04*
G04*
G04 #@! TF.FilePolarity,Positive*
G04*
G01*
G75*
%ADD10C,0.01000*%
%ADD14C,0.01181*%
%ADD15R,0.05500X0.05000*%
%ADD16R,0.41142X0.39370*%
%ADD17R,0.04134X0.12598*%
%ADD18R,0.07874X0.15748*%
%ADD19R,0.03000X0.02500*%
%ADD20R,0.08661X0.01575*%
%ADD21O,0.01181X0.03937*%
%ADD22R,0.01181X0.03937*%
%ADD23R,0.04724X0.03150*%
%ADD24R,0.04724X0.02992*%
%ADD25R,0.04724X0.02756*%
G04:AMPARAMS|DCode=26|XSize=55mil|YSize=50mil|CornerRadius=0mil|HoleSize=0mil|Usage=FLASHONLY|Rotation=90.000|XOffset=0mil|YOffset=0mil|HoleType=Round|Shape=Octagon|*
%AMOCTAGOND26*
4,1,8,0.01250,0.02750,-0.01250,0.02750,-0.02500,0.01500,-0.02500,-0.01500,-0.01250,-0.02750,0.01250,-0.02750,0.02500,-0.01500,0.02500,0.01500,0.01250,0.02750,0.0*
%
%ADD26OCTAGOND26*%

%ADD27R,0.05000X0.05500*%
%ADD28R,0.05000X0.04000*%
%ADD29R,0.04000X0.04000*%
%ADD30R,0.02500X0.03000*%
%ADD31R,0.19685X0.11811*%
%ADD32R,0.08661X0.06890*%
%ADD57C,0.03937*%
%ADD58C,0.03937*%
%ADD59C,0.00787*%
%ADD60C,0.00591*%
%ADD61C,0.01575*%
%ADD62C,0.02953*%
%ADD63C,0.05039*%
%ADD64R,0.19200X0.13680*%
%ADD65O,0.13780X0.11024*%
%ADD66R,0.06693X0.06693*%
%ADD67C,0.06693*%
G04:AMPARAMS|DCode=68|XSize=43.31mil|YSize=66.93mil|CornerRadius=10.83mil|HoleSize=0mil|Usage=FLASHONLY|Rotation=270.000|XOffset=0mil|YOffset=0mil|HoleType=Round|Shape=RoundedRectangle|*
%AMROUNDEDRECTD68*
21,1,0.04331,0.04528,0,0,270.0*
21,1,0.02165,0.06693,0,0,270.0*
1,1,0.02165,-0.02264,-0.01083*
1,1,0.02165,-0.02264,0.01083*
1,1,0.02165,0.02264,0.01083*
1,1,0.02165,0.02264,-0.01083*
%
%ADD68ROUNDEDRECTD68*%
G04:AMPARAMS|DCode=69|XSize=66.93mil|YSize=43.31mil|CornerRadius=10.83mil|HoleSize=0mil|Usage=FLASHONLY|Rotation=180.000|XOffset=0mil|YOffset=0mil|HoleType=Round|Shape=RoundedRectangle|*
%AMROUNDEDRECTD69*
21,1,0.06693,0.02165,0,0,180.0*
21,1,0.04528,0.04331,0,0,180.0*
1,1,0.02165,-0.02264,0.01083*
1,1,0.02165,0.02264,0.01083*
1,1,0.02165,0.02264,-0.01083*
1,1,0.02165,-0.02264,-0.01083*
%
%ADD69ROUNDEDRECTD69*%
%ADD70C,0.05000*%
%ADD71C,0.03543*%
G36*
X170300Y63600D02*
X170200Y63500D01*
X167511D01*
X160111Y70700D01*
X151400D01*
X149487Y68552D01*
X145500Y56300D01*
Y75800D01*
X170300D01*
Y63600D01*
D02*
G37*
G36*
X37500Y56500D02*
X31500D01*
X26000Y62000D01*
Y67000D01*
X37500D01*
Y56500D01*
D02*
G37*
G36*
X129599Y68900D02*
X129582Y58600D01*
X129500D01*
X125600Y56301D01*
X61900Y56101D01*
X50000Y66800D01*
X41000D01*
X41000Y74316D01*
X45066Y78000D01*
X117500D01*
X129599Y68900D01*
D02*
G37*
G36*
X6737Y53222D02*
X8501D01*
X9314Y53383D01*
X9744Y53671D01*
X10244Y53403D01*
Y45500D01*
Y33500D01*
X10291Y33139D01*
Y33078D01*
X10307Y33018D01*
X10355Y32657D01*
X10494Y32321D01*
X10510Y32261D01*
X10541Y32208D01*
X10680Y31872D01*
X10902Y31583D01*
X10932Y31530D01*
X10976Y31486D01*
X11197Y31198D01*
X11486Y30976D01*
X11530Y30932D01*
X11583Y30902D01*
X11872Y30680D01*
X12208Y30541D01*
X12262Y30510D01*
X12321Y30494D01*
X12657Y30355D01*
X13018Y30307D01*
X13078Y30291D01*
X13139D01*
X13500Y30244D01*
X13861Y30291D01*
X13922D01*
X13982Y30307D01*
X14343Y30355D01*
X14679Y30494D01*
X14739Y30510D01*
X14792Y30541D01*
X15128Y30680D01*
X15417Y30902D01*
X15470Y30932D01*
X15514Y30976D01*
X15802Y31198D01*
X15811Y31208D01*
X17943D01*
X18426Y31168D01*
X18426Y30708D01*
Y29093D01*
X21789D01*
X25151D01*
Y30852D01*
X25151Y31168D01*
X24859Y31547D01*
Y36366D01*
X32544D01*
X34738Y34172D01*
Y31528D01*
X34839Y31021D01*
X35126Y30591D01*
X35556Y30304D01*
X35964Y30222D01*
X35915Y29722D01*
X35000D01*
X34723Y29667D01*
X34489Y29511D01*
X34332Y29276D01*
X34277Y29000D01*
X34277Y25000D01*
X34332Y24724D01*
X34489Y24489D01*
X34723Y24332D01*
X35000Y24277D01*
X35915D01*
X35964Y23777D01*
X35556Y23696D01*
X35126Y23409D01*
X34839Y22979D01*
X34738Y22472D01*
Y19716D01*
X34743Y19691D01*
X32167Y17114D01*
X16091D01*
X15699Y17036D01*
X15367Y16814D01*
X10108Y11555D01*
X3445D01*
Y11540D01*
X2328D01*
Y19323D01*
X2828Y19590D01*
X3161Y19368D01*
X3974Y19206D01*
X5737D01*
Y22412D01*
Y25618D01*
X3974D01*
X3161Y25457D01*
X2828Y25234D01*
X2328Y25502D01*
Y53338D01*
X2828Y53606D01*
X3161Y53383D01*
X3974Y53222D01*
X5737D01*
Y56428D01*
X6737D01*
Y53222D01*
D02*
G37*
G36*
X30989Y55989D02*
X31223Y55832D01*
X31500Y55778D01*
X37500D01*
X37776Y55832D01*
X38011Y55989D01*
X38168Y56223D01*
X38223Y56500D01*
Y60827D01*
X38723Y61035D01*
X41241Y58516D01*
Y55891D01*
X43666D01*
X49491Y50066D01*
Y48241D01*
X53668D01*
Y45759D01*
X51234D01*
X49121Y47871D01*
X48722Y48138D01*
X48250Y48232D01*
X48250Y48232D01*
X45750D01*
Y49700D01*
X43250D01*
X40750D01*
Y48232D01*
X38460D01*
X36709Y49984D01*
Y52159D01*
X32291D01*
Y49868D01*
X27763Y46729D01*
X25216Y46690D01*
X24859Y47040D01*
Y47293D01*
X25151Y47672D01*
X25151Y47988D01*
Y49747D01*
X21789D01*
Y50747D01*
X25151D01*
Y52822D01*
X24587D01*
Y53592D01*
X24963Y53844D01*
X25424Y54533D01*
X25585Y55345D01*
Y55928D01*
X21198D01*
Y56428D01*
X20698D01*
Y59634D01*
X18934D01*
X18122Y59472D01*
X17433Y59012D01*
X17256Y58748D01*
X16756Y58900D01*
Y59651D01*
X18349Y61244D01*
X25734D01*
X30989Y55989D01*
D02*
G37*
G36*
X260520Y64780D02*
X274040D01*
Y75900D01*
X274040Y41560D01*
X188654D01*
X174263Y53300D01*
Y76460D01*
X249500D01*
X260520Y64780D01*
D02*
G37*
G36*
X49491Y44016D02*
Y41841D01*
X53668D01*
Y33701D01*
X52737Y32770D01*
X52374Y32980D01*
X50033D01*
X50255Y32755D01*
X45000Y27500D01*
X45000Y25000D01*
X35000D01*
X35000Y29000D01*
X43500D01*
X47480Y32980D01*
X46458D01*
X45698Y32220D01*
X45236Y32411D01*
Y35583D01*
X45169D01*
Y41841D01*
X45459D01*
Y45759D01*
X45955Y45768D01*
X47739D01*
X49491Y44016D01*
D02*
G37*
G36*
X59191Y45289D02*
Y45141D01*
X59339D01*
X60660Y43820D01*
X60875D01*
Y41359D01*
X60091D01*
Y37441D01*
X64509D01*
Y41359D01*
X63925D01*
Y43820D01*
X83863D01*
Y36000D01*
X88800D01*
X93737D01*
Y42710D01*
X94199Y42901D01*
X99620Y37480D01*
Y2328D01*
X77264D01*
X77130Y2828D01*
X77149Y2839D01*
X77801Y3491D01*
X78262Y4289D01*
X78490Y5140D01*
X71510D01*
X71738Y4289D01*
X72199Y3491D01*
X72851Y2839D01*
X72870Y2828D01*
X72736Y2328D01*
X21800D01*
Y10352D01*
X24924Y13476D01*
X33720D01*
X34112Y13554D01*
X34444Y13776D01*
X38787Y18119D01*
X38899Y18288D01*
X39489Y18496D01*
X39493Y18493D01*
X40000Y18392D01*
X40507Y18493D01*
X40587Y18546D01*
X40984Y18755D01*
X41382Y18546D01*
X41462Y18493D01*
X41969Y18392D01*
X42475Y18493D01*
X42905Y18780D01*
X43350Y18546D01*
X43430Y18493D01*
X43937Y18392D01*
X44444Y18493D01*
X44874Y18780D01*
X45161Y19210D01*
X45262Y19716D01*
Y21810D01*
X55771Y32319D01*
X56038Y32719D01*
X56132Y33191D01*
X56132Y33191D01*
Y47694D01*
X56594Y47886D01*
X59191Y45289D01*
D02*
G37*
G36*
X274140Y1920D02*
X204346D01*
Y36380D01*
X274140D01*
Y1920D01*
D02*
G37*
G36*
X190690Y17000D02*
X200700D01*
Y1900D01*
X161177D01*
X161400Y41300D01*
X190690Y17000D01*
D02*
G37*
%LPC*%
G36*
X25151Y28093D02*
X21789D01*
X18426D01*
Y26019D01*
X18426D01*
X18432Y25519D01*
X18122Y25457D01*
X17433Y24996D01*
X16972Y24308D01*
X16811Y23495D01*
Y22912D01*
X21198D01*
X25585D01*
Y23495D01*
X25424Y24308D01*
X24963Y24996D01*
X24489Y25313D01*
Y26019D01*
X25151D01*
Y28093D01*
D02*
G37*
G36*
X8501Y25618D02*
X6737D01*
Y22912D01*
X10625D01*
Y23495D01*
X10463Y24308D01*
X10003Y24996D01*
X9314Y25457D01*
X8501Y25618D01*
D02*
G37*
G36*
X25585Y21912D02*
X21698D01*
Y19206D01*
X23462D01*
X24274Y19368D01*
X24963Y19828D01*
X25424Y20517D01*
X25585Y21330D01*
Y21912D01*
D02*
G37*
G36*
X20698D02*
X16811D01*
Y21330D01*
X16972Y20517D01*
X17433Y19828D01*
X18122Y19368D01*
X18934Y19206D01*
X20698D01*
Y21912D01*
D02*
G37*
G36*
X10625Y21912D02*
X6737D01*
Y19206D01*
X8501D01*
X9314Y19368D01*
X10003Y19828D01*
X10463Y20517D01*
X10625Y21330D01*
Y21912D01*
D02*
G37*
G36*
X23462Y59634D02*
X21698D01*
Y56928D01*
X25585D01*
Y57511D01*
X25424Y58323D01*
X24963Y59012D01*
X24274Y59472D01*
X23462Y59634D01*
D02*
G37*
G36*
X45750Y52450D02*
X43750D01*
Y50700D01*
X45750D01*
Y52450D01*
D02*
G37*
G36*
X42750D02*
X40750D01*
Y50700D01*
X42750D01*
Y52450D01*
D02*
G37*
G36*
X49040Y36215D02*
X48470Y36063D01*
X47838Y35698D01*
X47322Y35182D01*
X46957Y34550D01*
X46805Y33980D01*
X48480D01*
X48765Y34265D01*
X49040Y33987D01*
Y36215D01*
D02*
G37*
G36*
X50040D02*
Y33980D01*
X52276D01*
X52123Y34550D01*
X51758Y35182D01*
X51242Y35698D01*
X50610Y36063D01*
X50040Y36215D01*
D02*
G37*
G36*
X76240Y40130D02*
Y37140D01*
X79229D01*
X79001Y37991D01*
X78541Y38789D01*
X77889Y39441D01*
X77091Y39902D01*
X76240Y40130D01*
D02*
G37*
G36*
X75240D02*
X74389Y39902D01*
X73591Y39441D01*
X72939Y38789D01*
X72478Y37991D01*
X72250Y37140D01*
X75240D01*
Y40130D01*
D02*
G37*
G36*
X64800Y35250D02*
X62800D01*
Y33500D01*
X64800D01*
Y35250D01*
D02*
G37*
G36*
X61800D02*
X59800D01*
Y33500D01*
X61800D01*
Y35250D01*
D02*
G37*
G36*
X79229Y36140D02*
X76240D01*
Y33151D01*
X77091Y33378D01*
X77889Y33839D01*
X78541Y34491D01*
X79001Y35289D01*
X79229Y36140D01*
D02*
G37*
G36*
X75240D02*
X72250D01*
X72478Y35289D01*
X72939Y34491D01*
X73591Y33839D01*
X74389Y33378D01*
X75240Y33151D01*
Y36140D01*
D02*
G37*
G36*
X64800Y32500D02*
X62800D01*
Y30750D01*
X64800D01*
Y32500D01*
D02*
G37*
G36*
X61800D02*
X59800D01*
Y30750D01*
X61800D01*
Y32500D01*
D02*
G37*
G36*
X93737Y35000D02*
X89300D01*
Y26626D01*
X93737D01*
Y35000D01*
D02*
G37*
G36*
X88300D02*
X83863D01*
Y26626D01*
X88300D01*
Y35000D01*
D02*
G37*
G36*
X76020Y23789D02*
Y20800D01*
X79009D01*
X78781Y21651D01*
X78321Y22449D01*
X77669Y23101D01*
X76871Y23562D01*
X76020Y23789D01*
D02*
G37*
G36*
X75020D02*
X74169Y23562D01*
X73371Y23101D01*
X72719Y22449D01*
X72259Y21651D01*
X72031Y20800D01*
X75020D01*
Y23789D01*
D02*
G37*
G36*
X52580Y20949D02*
Y17960D01*
X55569D01*
X55342Y18811D01*
X54881Y19609D01*
X54229Y20261D01*
X53431Y20721D01*
X52580Y20949D01*
D02*
G37*
G36*
X51580D02*
X50729Y20721D01*
X49931Y20261D01*
X49279Y19609D01*
X48818Y18811D01*
X48590Y17960D01*
X51580D01*
Y20949D01*
D02*
G37*
G36*
X79009Y19800D02*
X76020D01*
Y16811D01*
X76871Y17039D01*
X77669Y17499D01*
X78321Y18151D01*
X78781Y18949D01*
X79009Y19800D01*
D02*
G37*
G36*
X75020D02*
X72031D01*
X72259Y18949D01*
X72719Y18151D01*
X73371Y17499D01*
X74169Y17039D01*
X75020Y16811D01*
Y19800D01*
D02*
G37*
G36*
X94176Y18345D02*
X89345D01*
Y14400D01*
X94176D01*
Y18345D01*
D02*
G37*
G36*
X88345D02*
X83514D01*
Y14400D01*
X88345D01*
Y18345D01*
D02*
G37*
G36*
X55569Y16960D02*
X52580D01*
Y13971D01*
X53431Y14198D01*
X54229Y14659D01*
X54881Y15311D01*
X55342Y16109D01*
X55569Y16960D01*
D02*
G37*
G36*
X51580D02*
X48590D01*
X48818Y16109D01*
X49279Y15311D01*
X49931Y14659D01*
X50729Y14198D01*
X51580Y13971D01*
Y16960D01*
D02*
G37*
G36*
X94176Y13400D02*
X89345D01*
Y9455D01*
X94176D01*
Y13400D01*
D02*
G37*
G36*
X88345D02*
X83514D01*
Y9455D01*
X88345D01*
Y13400D01*
D02*
G37*
G36*
X28072Y11846D02*
X28000D01*
Y8000D01*
X31846D01*
Y8072D01*
X31550Y9178D01*
X30978Y10169D01*
X30169Y10978D01*
X29178Y11550D01*
X28072Y11846D01*
D02*
G37*
G36*
X27000D02*
X26928D01*
X25822Y11550D01*
X24831Y10978D01*
X24022Y10169D01*
X23450Y9178D01*
X23154Y8072D01*
Y8000D01*
X27000D01*
Y11846D01*
D02*
G37*
G36*
X45241Y10698D02*
Y7708D01*
X48230D01*
X48002Y8559D01*
X47542Y9357D01*
X46890Y10009D01*
X46092Y10470D01*
X45241Y10698D01*
D02*
G37*
G36*
X44241D02*
X43390Y10470D01*
X42592Y10009D01*
X41940Y9357D01*
X41480Y8559D01*
X41252Y7708D01*
X44241D01*
Y10698D01*
D02*
G37*
G36*
X75500Y9129D02*
Y6140D01*
X78490D01*
X78262Y6991D01*
X77801Y7789D01*
X77149Y8441D01*
X76351Y8901D01*
X75500Y9129D01*
D02*
G37*
G36*
X74500D02*
X73649Y8901D01*
X72851Y8441D01*
X72199Y7789D01*
X71738Y6991D01*
X71510Y6140D01*
X74500D01*
Y9129D01*
D02*
G37*
G36*
X48230Y6708D02*
X45241D01*
Y3719D01*
X46092Y3947D01*
X46890Y4407D01*
X47542Y5059D01*
X48002Y5857D01*
X48230Y6708D01*
D02*
G37*
G36*
X44241D02*
X41252D01*
X41480Y5857D01*
X41940Y5059D01*
X42592Y4407D01*
X43390Y3947D01*
X44241Y3719D01*
Y6708D01*
D02*
G37*
G36*
X31846Y7000D02*
X28000D01*
Y3153D01*
X28072D01*
X29178Y3450D01*
X30169Y4022D01*
X30978Y4831D01*
X31550Y5822D01*
X31846Y6928D01*
Y7000D01*
D02*
G37*
G36*
X27000D02*
X23154D01*
Y6928D01*
X23450Y5822D01*
X24022Y4831D01*
X24831Y4022D01*
X25822Y3450D01*
X26928Y3153D01*
X27000D01*
Y7000D01*
D02*
G37*
%LPD*%
D10*
X175400Y64850D02*
Y74100D01*
X169000Y65100D02*
Y74100D01*
X146400Y74200D02*
X146700D01*
X43937Y43500D02*
Y43900D01*
X43250Y43500D02*
X43937D01*
X154279Y58368D02*
Y62600D01*
X147400Y62786D02*
Y74100D01*
X147500D01*
X175400Y64850D02*
X176150Y64100D01*
X186372Y59650D02*
X190900Y55122D01*
X147500Y74100D02*
X169000D01*
X146700Y74200D02*
Y74300D01*
X147400Y74200D02*
X147500Y74100D01*
X147400Y62786D02*
X147586Y62600D01*
Y66832D01*
X43050Y57900D02*
Y58700D01*
X51250Y50750D02*
X52000Y50000D01*
X38993Y65807D02*
X39000Y65800D01*
Y62500D02*
Y65800D01*
Y62500D02*
X42800Y58700D01*
X35500Y72500D02*
X38993Y69007D01*
Y65807D02*
Y69007D01*
X34750Y50200D02*
X37950Y47000D01*
X51450Y43800D02*
X51700D01*
X48250Y47000D02*
X51450Y43800D01*
X37950Y47000D02*
X48250D01*
X34500Y50200D02*
X34750D01*
X54900Y33191D02*
Y52800D01*
X50600Y57100D02*
X54900Y52800D01*
X49600Y57850D02*
Y58100D01*
X50350Y57100D02*
X50600D01*
X49600Y57850D02*
X50350Y57100D01*
X44216Y22507D02*
X54900Y33191D01*
X34500Y43500D02*
X43250D01*
X43200Y57850D02*
X43950Y57100D01*
X50550Y50750D02*
X51250D01*
X43200Y57850D02*
Y58100D01*
X43950Y57100D02*
X44200D01*
X50550Y50750D01*
X43050Y57900D02*
X43150D01*
X42800Y58700D02*
X43050D01*
X43937Y32906D02*
Y43500D01*
X34453Y49867D02*
X34500Y49900D01*
X28157Y45502D02*
X34453Y49867D01*
X23663Y45433D02*
X28157Y45502D01*
X44021Y22507D02*
X44216D01*
X43937Y22423D02*
X44021Y22507D01*
X41969Y21094D02*
X42003Y21060D01*
X40000Y21094D02*
X40035Y21060D01*
D14*
X134760Y74320D02*
X140280D01*
X108040Y51980D02*
X108492Y51528D01*
X113672D02*
X114300Y50900D01*
X108492Y51528D02*
X113672D01*
D15*
X207520Y68560D02*
D03*
X67600Y73680D02*
D03*
D16*
X140893Y21600D02*
D03*
D17*
X127507Y62600D02*
D03*
X134200D02*
D03*
X140893Y62600D02*
D03*
X147586D02*
D03*
X154279D02*
D03*
D18*
X88800Y35500D02*
D03*
Y66996D02*
D03*
X238800Y51496D02*
D03*
Y20000D02*
D03*
D19*
X62300Y33000D02*
D03*
Y39400D02*
D03*
X43250Y50200D02*
D03*
Y43800D02*
D03*
X51700Y50200D02*
D03*
Y43800D02*
D03*
X34500D02*
D03*
Y50200D02*
D03*
X114300Y50900D02*
D03*
Y57300D02*
D03*
X264400Y35800D02*
D03*
Y42200D02*
D03*
D20*
X40000Y26400D02*
D03*
D21*
Y32906D02*
D03*
Y21094D02*
D03*
X41969Y32906D02*
D03*
X38032D02*
D03*
X36063Y32906D02*
D03*
Y21094D02*
D03*
X38032Y21094D02*
D03*
X41969D02*
D03*
X43937Y21094D02*
D03*
D22*
Y32906D02*
D03*
D23*
X21789Y28593D02*
D03*
Y50247D02*
D03*
D24*
Y33436D02*
D03*
Y45404D02*
D03*
D25*
Y37452D02*
D03*
Y41389D02*
D03*
D26*
X62400Y62100D02*
D03*
D27*
Y48600D02*
D03*
D28*
X43500Y68800D02*
D03*
D29*
X35500Y72500D02*
D03*
Y65000D02*
D03*
D30*
X43200Y58100D02*
D03*
X49600D02*
D03*
X175500Y74300D02*
D03*
X169100D02*
D03*
Y65100D02*
D03*
X175500D02*
D03*
X146700Y74300D02*
D03*
X140300D02*
D03*
D31*
X190900Y55122D02*
D03*
Y7878D02*
D03*
D32*
X88845Y13900D02*
D03*
X106955D02*
D03*
D57*
X8420Y70780D02*
D03*
X266900Y70980D02*
D03*
X111980Y25600D02*
D03*
D58*
X127200Y8900D02*
X140893Y22593D01*
X142500Y24200D01*
X140893Y21600D02*
Y22593D01*
X140893Y21600D02*
X140893Y21600D01*
X21198Y56428D02*
X21887Y55739D01*
Y51120D02*
Y55739D01*
X21198Y22412D02*
X21592D01*
X21789Y22609D01*
Y27680D01*
X106955Y13900D02*
X127100D01*
D59*
X21789Y41389D02*
X22757Y40420D01*
X34080D01*
X38000Y36500D01*
X140280Y74320D02*
X140300Y74300D01*
X38000Y34000D02*
Y36500D01*
X35988Y32867D02*
Y34465D01*
X35866Y34587D02*
Y34634D01*
X33010Y37490D02*
X35866Y34634D01*
Y34587D02*
X35988Y34465D01*
X21827Y37490D02*
X33010D01*
X35941Y32820D02*
X35988Y32867D01*
X21789Y37452D02*
X21827Y37490D01*
D60*
X38063Y18843D02*
Y22195D01*
X24500Y14500D02*
X33720D01*
X38063Y18843D01*
X16091Y16091D02*
X32591D01*
X36063Y19563D02*
Y21094D01*
X32591Y16091D02*
X36063Y19563D01*
X7500Y7500D02*
X16091Y16091D01*
X17500Y7500D02*
X24500Y14500D01*
D61*
X62400Y48373D02*
Y48600D01*
Y39800D02*
Y48373D01*
X122492Y46660D02*
X134200Y58368D01*
X64113Y46660D02*
X122492D01*
X62400Y48373D02*
X64113Y46660D01*
X134200Y58368D02*
Y62600D01*
X62300Y39700D02*
X62400Y39800D01*
D62*
X13564Y33436D02*
X21789D01*
X13596Y45404D02*
X21789D01*
D63*
X17000Y64500D02*
X28500D01*
X13500Y61000D02*
X17000Y64500D01*
X13500Y45500D02*
Y61000D01*
Y33500D02*
Y45500D01*
D64*
X161820Y51280D02*
D03*
D65*
X266600Y55660D02*
D03*
Y23000D02*
D03*
D66*
X7500Y7500D02*
D03*
D67*
X17500D02*
D03*
X27500D02*
D03*
D68*
X6237Y22412D02*
D03*
Y56428D02*
D03*
D69*
X21198Y22412D02*
D03*
Y56428D02*
D03*
D70*
X239160Y8020D02*
D03*
X239080Y31400D02*
D03*
X161840Y54160D02*
D03*
X155320Y47640D02*
D03*
X168180Y47620D02*
D03*
X250920Y12780D02*
D03*
X228280D02*
D03*
X216960D02*
D03*
X216700Y27140D02*
D03*
X228020D02*
D03*
X250660D02*
D03*
X52080Y17460D02*
D03*
X75520Y20300D02*
D03*
X75740Y36640D02*
D03*
X44741Y7208D02*
D03*
X75000Y5640D02*
D03*
X28500Y64500D02*
D03*
X13500Y33500D02*
D03*
Y45500D02*
D03*
D71*
X28180Y53800D02*
D03*
X29840Y21960D02*
D03*
X29680Y32240D02*
D03*
X49540Y33480D02*
D03*
X134760Y74320D02*
D03*
X108040Y51980D02*
D03*
M02*
