G04*
G04 #@! TF.GenerationSoftware,Altium Limited,Altium Designer,22.1.2 (22)*
G04*
G04 Layer_Physical_Order=2*
G04 Layer_Color=16711680*
%FSLAX25Y25*%
%MOIN*%
G70*
G04*
G04 #@! TF.SameCoordinates,174BC2DA-B873-4BC2-8B21-C8E9C5FF9B9E*
G04*
G04*
G04 #@! TF.FilePolarity,Positive*
G04*
G01*
G75*
%ADD10C,0.01000*%
%ADD14C,0.01181*%
%ADD58C,0.03937*%
%ADD65O,0.13780X0.11024*%
%ADD66R,0.06693X0.06693*%
%ADD67C,0.06693*%
G04:AMPARAMS|DCode=68|XSize=43.31mil|YSize=66.93mil|CornerRadius=10.83mil|HoleSize=0mil|Usage=FLASHONLY|Rotation=270.000|XOffset=0mil|YOffset=0mil|HoleType=Round|Shape=RoundedRectangle|*
%AMROUNDEDRECTD68*
21,1,0.04331,0.04528,0,0,270.0*
21,1,0.02165,0.06693,0,0,270.0*
1,1,0.02165,-0.02264,-0.01083*
1,1,0.02165,-0.02264,0.01083*
1,1,0.02165,0.02264,0.01083*
1,1,0.02165,0.02264,-0.01083*
%
%ADD68ROUNDEDRECTD68*%
G04:AMPARAMS|DCode=69|XSize=66.93mil|YSize=43.31mil|CornerRadius=10.83mil|HoleSize=0mil|Usage=FLASHONLY|Rotation=180.000|XOffset=0mil|YOffset=0mil|HoleType=Round|Shape=RoundedRectangle|*
%AMROUNDEDRECTD69*
21,1,0.06693,0.02165,0,0,180.0*
21,1,0.04528,0.04331,0,0,180.0*
1,1,0.02165,-0.02264,0.01083*
1,1,0.02165,0.02264,0.01083*
1,1,0.02165,0.02264,-0.01083*
1,1,0.02165,-0.02264,-0.01083*
%
%ADD69ROUNDEDRECTD69*%
%ADD70C,0.05000*%
%ADD71C,0.03543*%
%ADD72C,0.04921*%
%ADD73R,0.69140X0.34700*%
D10*
X266600Y23000D02*
Y29512D01*
Y16488D02*
Y23000D01*
X258710D02*
X266600D01*
X250660Y23640D02*
Y27140D01*
Y30640D01*
Y27140D02*
X254160D01*
X239080Y31400D02*
X242580D01*
X239080Y27900D02*
Y31400D01*
Y34900D01*
X235580Y31400D02*
X239080D01*
X228020Y27140D02*
Y30640D01*
X224520Y27140D02*
X228020D01*
X247160D02*
X250660D01*
X228020D02*
X231520D01*
X228020Y23640D02*
Y27140D01*
X131988Y74320D02*
X134760D01*
X137532D01*
X134760Y71548D02*
Y74320D01*
X168180Y47620D02*
Y51120D01*
Y47620D02*
X171680D01*
X164680D02*
X168180D01*
X161840Y50660D02*
Y54160D01*
Y57660D01*
Y54160D02*
X165340D01*
X216700Y27140D02*
X220200D01*
X216700Y23640D02*
Y27140D01*
X168180Y44120D02*
Y47620D01*
X216700Y27140D02*
Y30640D01*
X213200Y27140D02*
X216700D01*
X158340Y54160D02*
X161840D01*
X108040Y51980D02*
Y54752D01*
X105268Y51980D02*
X108040D01*
X110812D01*
X108040Y49208D02*
Y51980D01*
X155320Y47640D02*
X158820D01*
X155320D02*
Y51140D01*
Y44140D02*
Y47640D01*
X151820D02*
X155320D01*
X250920Y12780D02*
Y16280D01*
X228280Y12780D02*
Y16280D01*
X250920Y12780D02*
X254420D01*
X250920Y9280D02*
Y12780D01*
X247420D02*
X250920D01*
X235660Y8020D02*
X239160D01*
Y11520D01*
Y8020D02*
X242660D01*
X239160Y4520D02*
Y8020D01*
X228280Y12780D02*
X231780D01*
X228280Y9280D02*
Y12780D01*
X224780D02*
X228280D01*
X216960D02*
X220460D01*
X216960D02*
Y16280D01*
Y9280D02*
Y12780D01*
X213460D02*
X216960D01*
X72240Y36640D02*
X75740D01*
Y40140D01*
Y36640D02*
X79240D01*
X49540Y33480D02*
Y36252D01*
X28180Y51028D02*
Y53800D01*
X46768Y33480D02*
X49540D01*
X75740Y33140D02*
Y36640D01*
X49540Y33480D02*
X52312D01*
X49540Y30708D02*
Y33480D01*
X29680Y32240D02*
Y35012D01*
Y32240D02*
X32452D01*
X29680Y29468D02*
Y32240D01*
X28180Y53800D02*
X30952D01*
X28180D02*
Y56572D01*
X25408Y53800D02*
X28180D01*
X26908Y32240D02*
X29680D01*
X6237Y56428D02*
Y59790D01*
X21198Y56428D02*
X25544D01*
X21198Y53263D02*
Y56428D01*
X6237Y53066D02*
Y56428D01*
X21198Y22412D02*
X25544D01*
X75520Y20300D02*
Y23800D01*
Y16800D02*
Y20300D01*
X79020D01*
X75000Y5640D02*
X78500D01*
X72020Y20300D02*
X75520D01*
X75000Y5640D02*
Y9140D01*
X71500Y5640D02*
X75000D01*
X52080Y17460D02*
X55580D01*
X52080Y13960D02*
Y17460D01*
Y20960D01*
X48580Y17460D02*
X52080D01*
X27068Y21960D02*
X29840D01*
Y24732D01*
Y21960D02*
X32612D01*
X29840Y19188D02*
Y21960D01*
X21198Y22412D02*
Y25578D01*
Y19247D02*
Y22412D01*
X16851D02*
X21198D01*
X6237D02*
Y25774D01*
Y22412D02*
X10584D01*
X6237Y19050D02*
Y22412D01*
X41241Y7208D02*
X44741D01*
Y10708D01*
Y7208D02*
X48241D01*
X44741Y3708D02*
Y7208D01*
X27500Y7500D02*
Y11846D01*
X23154Y7500D02*
X27500D01*
X31846D01*
D14*
X272716Y28291D02*
G03*
X267978Y30102I-4739J-5291D01*
G01*
X243171Y31400D02*
G03*
X243171Y31400I-4091J0D01*
G01*
X254751Y27140D02*
G03*
X254751Y27140I-4091J0D01*
G01*
X232111D02*
G03*
X232111Y27140I-4091J0D01*
G01*
X138122Y74320D02*
G03*
X137708Y75936I-3362J0D01*
G01*
X131812D02*
G03*
X138122Y74320I2948J-1616D01*
G01*
X220791Y27140D02*
G03*
X220791Y27140I-4091J0D01*
G01*
X172271Y47620D02*
G03*
X172271Y47620I-4091J0D01*
G01*
X165930Y54160D02*
G03*
X165930Y54160I-4091J0D01*
G01*
X111402Y51980D02*
G03*
X111402Y51980I-3362J0D01*
G01*
X159411Y47640D02*
G03*
X159411Y47640I-4091J0D01*
G01*
X265222Y30102D02*
G03*
X265222Y15898I0J-7102D01*
G01*
X267978D02*
G03*
X272716Y17709I0J7102D01*
G01*
X255011Y12780D02*
G03*
X255011Y12780I-4091J0D01*
G01*
X232371D02*
G03*
X232371Y12780I-4091J0D01*
G01*
X243251Y8020D02*
G03*
X243251Y8020I-4091J0D01*
G01*
X221051Y12780D02*
G03*
X221051Y12780I-4091J0D01*
G01*
X79831Y36640D02*
G03*
X79831Y36640I-4091J0D01*
G01*
X52902Y33480D02*
G03*
X52902Y33480I-3362J0D01*
G01*
X31542Y53800D02*
G03*
X26135Y56469I-3362J0D01*
G01*
X24894Y53088D02*
G03*
X31542Y53800I3286J712D01*
G01*
X33042Y32240D02*
G03*
X33042Y32240I-3362J0D01*
G01*
X26135Y57511D02*
G03*
X25769Y58861I-2673J0D01*
G01*
X23462Y52672D02*
G03*
X24894Y53088I0J2673D01*
G01*
X2874Y52712D02*
G03*
X3974Y52475I1100J2437D01*
G01*
Y60381D02*
G03*
X2874Y60144I0J-2673D01*
G01*
X18934Y26168D02*
G03*
X16261Y23495I0J-2673D01*
G01*
X26135D02*
G03*
X23462Y26168I-2673J0D01*
G01*
X11174Y23692D02*
G03*
X8501Y26365I-2673J0D01*
G01*
X3974D02*
G03*
X2874Y26128I0J-2673D01*
G01*
X79611Y20300D02*
G03*
X79611Y20300I-4091J0D01*
G01*
X78014Y2874D02*
G03*
X79090Y5640I-3014J2766D01*
G01*
D02*
G03*
X71986Y2874I-4091J0D01*
G01*
X56171Y17460D02*
G03*
X56171Y17460I-4091J0D01*
G01*
X33202Y21960D02*
G03*
X33202Y21960I-3362J0D01*
G01*
X23462Y18656D02*
G03*
X26135Y21330I0J2673D01*
G01*
X16261D02*
G03*
X18934Y18656I2673J0D01*
G01*
X8501Y18460D02*
G03*
X11174Y21133I0J2673D01*
G01*
X2874Y18696D02*
G03*
X3974Y18460I1100J2437D01*
G01*
X48832Y7208D02*
G03*
X48832Y7208I-4091J0D01*
G01*
X29225Y2874D02*
G03*
X32437Y7500I-1725J4626D01*
G01*
D02*
G03*
X25775Y2874I-4937J0D01*
G01*
X238772Y75936D02*
X254461Y60247D01*
X235431Y75936D02*
X254461Y56907D01*
X232091Y75936D02*
X254461Y53566D01*
X255100Y44321D02*
X272716D01*
X254461Y44960D02*
Y75936D01*
X252135D02*
X254461Y73610D01*
X248794Y75936D02*
X254461Y70270D01*
X245453Y75936D02*
X254461Y66929D01*
X242113Y75936D02*
X254461Y63588D01*
X270388Y44321D02*
X272716Y41992D01*
X267047Y44321D02*
X272716Y38651D01*
X263706Y44321D02*
X272716Y35311D01*
Y28291D02*
Y44321D01*
X257025D02*
X272716Y28629D01*
X231254Y29645D02*
X254461Y52851D01*
X229296Y31027D02*
X254461Y56192D01*
X242262Y33971D02*
X254461Y46170D01*
X240265Y35315D02*
X254461Y49510D01*
X228750Y75936D02*
X254461Y50226D01*
X225409Y75936D02*
X254461Y46885D01*
X137708Y75936D02*
X254461D01*
X218861Y30613D02*
X254461Y66214D01*
X216091Y31185D02*
X254461Y69554D01*
X195344Y75936D02*
X236615Y34665D01*
X192003Y75936D02*
X235211Y32728D01*
X205365Y75936D02*
X250109Y31193D01*
X198684Y75936D02*
X239130Y35490D01*
X215387Y75936D02*
X261996Y29327D01*
X212047Y75936D02*
X260082Y27901D01*
X208706Y75936D02*
X258740Y25903D01*
X222069Y75936D02*
X267903Y30102D01*
X218728Y75936D02*
X264590Y30074D01*
X202025Y75936D02*
X247849Y30112D01*
X188663Y75936D02*
X248512Y16087D01*
X220462Y25534D02*
X254461Y59532D01*
X220423Y28835D02*
X254461Y62873D01*
X265118Y30102D02*
X272716Y37700D01*
X268444Y30087D02*
X272716Y34360D01*
X260366Y44321D02*
X272716Y31970D01*
X271084Y29387D02*
X272716Y31019D01*
X252465Y30811D02*
X265974Y44321D01*
X249317Y31004D02*
X262634Y44321D01*
X265222Y30102D02*
X267978D01*
X254194Y29200D02*
X269315Y44321D01*
X254713Y26588D02*
X258122Y23180D01*
X254671Y26336D02*
X272656Y44321D01*
X251793Y16776D02*
X258120Y23104D01*
X243168Y31537D02*
X255953Y44321D01*
X243170Y31450D02*
X246654Y27967D01*
X240408Y27531D02*
X251072Y16868D01*
X230897Y15924D02*
X259293Y44321D01*
X228497Y16865D02*
X238943Y27312D01*
X232111Y27160D02*
X235165Y30215D01*
X164921Y56850D02*
X184008Y75936D01*
X165916Y54504D02*
X187348Y75936D01*
X162854Y58123D02*
X180667Y75936D01*
X171476Y50042D02*
X197370Y75936D01*
X169563Y51470D02*
X194029Y75936D01*
X138553D02*
X158292Y56196D01*
X137973Y73331D02*
X140579Y75936D01*
X145234D02*
X163128Y58043D01*
X141893Y75936D02*
X160011Y57819D01*
X171959Y75936D02*
X216665Y31230D01*
X175300Y75936D02*
X223933Y27303D01*
X158597Y75936D02*
X217737Y16796D01*
X181981Y75936D02*
X226856Y31062D01*
X178641Y75936D02*
X224851Y29726D01*
X172269Y47494D02*
X200711Y75936D01*
X165278D02*
X212810Y28404D01*
X168619Y75936D02*
X214187Y30368D01*
X155256Y75936D02*
X214886Y16306D01*
X88443Y75936D02*
X109270Y55109D01*
X85102Y75936D02*
X106227Y54812D01*
X128531Y75936D02*
X131877Y72590D01*
X109586Y54966D02*
X130557Y75936D01*
X137935Y73213D02*
X157839Y53309D01*
X125190Y75936D02*
X151660Y49466D01*
X121849Y75936D02*
X151439Y46346D01*
X136415Y71393D02*
X156165Y51642D01*
X133030Y71437D02*
X153281Y51186D01*
X81761Y75936D02*
X104804Y52893D01*
X79503Y38245D02*
X117194Y75936D01*
X111170Y53208D02*
X131492Y73531D01*
X79388Y34789D02*
X120535Y75936D01*
X165723Y55448D02*
X169790Y51380D01*
X165499Y52331D02*
X166486Y51343D01*
X163876Y50612D02*
X164707Y49782D01*
X219928Y24627D02*
X227723Y16832D01*
X218266Y16656D02*
X225516Y23906D01*
X158401Y50330D02*
X159150Y51079D01*
X156334Y51603D02*
X157877Y53146D01*
X160989Y50159D02*
X164135Y47014D01*
X159396Y47984D02*
X161496Y50084D01*
X79438Y21476D02*
X106812Y48850D01*
X254980Y13282D02*
X259945Y18247D01*
X242308Y10632D02*
X272716Y41041D01*
X271274Y16709D02*
X272716Y15267D01*
X240287Y11952D02*
X251464Y23129D01*
X232214Y13901D02*
X246796Y28483D01*
X253919Y15562D02*
X258654Y20297D01*
X253632Y24329D02*
X272716Y5244D01*
X251487Y23134D02*
X271746Y2874D01*
X242345Y28935D02*
X268406Y2874D01*
X272716D02*
Y17709D01*
X257934Y2874D02*
X272716Y17656D01*
X231941Y25976D02*
X247945Y9972D01*
X251253Y2874D02*
X264333Y15954D01*
X247912Y2874D02*
X261809Y16771D01*
X185322Y75936D02*
X247077Y14181D01*
X221051Y12760D02*
X236509Y28218D01*
X164396Y2874D02*
X237458Y75936D01*
X228183Y23053D02*
X239126Y12110D01*
X220790Y27105D02*
X236648Y11248D01*
X161055Y2874D02*
X234117Y75936D01*
X157714Y2874D02*
X230777Y75936D01*
X181099Y2874D02*
X254161Y75936D01*
X184440Y2874D02*
X254461Y72895D01*
X177759Y2874D02*
X250821Y75936D01*
X230606Y23971D02*
X251703Y2874D01*
X227868D02*
X248600Y23606D01*
X171077Y2874D02*
X244139Y75936D01*
X167736Y2874D02*
X240799Y75936D01*
X224528Y2874D02*
X246989Y25335D01*
X174418Y2874D02*
X247480Y75936D01*
X268707Y15935D02*
X272716Y11926D01*
X265404Y15898D02*
X272716Y8585D01*
X265222Y15898D02*
X267978D01*
X243245Y8229D02*
X246924Y11907D01*
X244572Y2874D02*
X250418Y8720D01*
X243250Y7986D02*
X248362Y2874D01*
X261275D02*
X272716Y14316D01*
X264616Y2874D02*
X272716Y10975D01*
X254594Y2874D02*
X267617Y15898D01*
X271297Y2874D02*
X272716Y4294D01*
X267956Y2874D02*
X272716Y7634D01*
X255008Y12932D02*
X265065Y2874D01*
X254227Y10372D02*
X261725Y2874D01*
X252321Y8937D02*
X258384Y2874D01*
X248112Y9805D02*
X255043Y2874D01*
X232332Y12223D02*
X235270Y9285D01*
X220486Y10706D02*
X228318Y2874D01*
X241231D02*
X248138Y9781D01*
X242388Y5508D02*
X245022Y2874D01*
X231248Y9966D02*
X238340Y2874D01*
X240425Y4130D02*
X241681Y2874D01*
X237890D02*
X238951Y3935D01*
X229101Y8773D02*
X234999Y2874D01*
X220976Y13557D02*
X231659Y2874D01*
X234550D02*
X236548Y4872D01*
X231209Y2874D02*
X235228Y6893D01*
X148575Y75936D02*
X213108Y11402D01*
X130989Y2874D02*
X204051Y75936D01*
X118509D02*
X191571Y2874D01*
X161937Y75936D02*
X224273Y13601D01*
X151915Y75936D02*
X213282Y14570D01*
X115168Y75936D02*
X188230Y2874D01*
X111827Y75936D02*
X184890Y2874D01*
X120967D02*
X164330Y46237D01*
X117627Y2874D02*
X190689Y75936D01*
X147693Y2874D02*
X220755Y75936D01*
X151033Y2874D02*
X224095Y75936D01*
X144352Y2874D02*
X217414Y75936D01*
X171941Y49230D02*
X218296Y2874D01*
X154374D02*
X227436Y75936D01*
X137671Y2874D02*
X210733Y75936D01*
X134330Y2874D02*
X207392Y75936D01*
X159322Y48485D02*
X204934Y2874D01*
X141011D02*
X214073Y75936D01*
X94242Y2874D02*
X167304Y75936D01*
X95124D02*
X168186Y2874D01*
X91783Y75936D02*
X164846Y2874D01*
X98465Y75936D02*
X171527Y2874D01*
X97583D02*
X170645Y75936D01*
X84220Y2874D02*
X157282Y75936D01*
X80879Y2874D02*
X153942Y75936D01*
X90901Y2874D02*
X163964Y75936D01*
X87561Y2874D02*
X160623Y75936D01*
X101805D02*
X174868Y2874D01*
X104264D02*
X177326Y75936D01*
X100923Y2874D02*
X173986Y75936D01*
X108487D02*
X181549Y2874D01*
X105146Y75936D02*
X178208Y2874D01*
X111169Y53210D02*
X161505Y2874D01*
X110872Y50167D02*
X158164Y2874D01*
X108953Y48744D02*
X154824Y2874D01*
X107605D02*
X151357Y46626D01*
X217964Y23250D02*
X225466Y15748D01*
X220212Y15261D02*
X228000Y23050D01*
X197802Y2874D02*
X218306Y23378D01*
X214506Y2874D02*
X224195Y12563D01*
X217846Y2874D02*
X225136Y10163D01*
X201143Y2874D02*
X224133Y25864D01*
X221187Y2874D02*
X227159Y8846D01*
X218750Y9102D02*
X224977Y2874D01*
X207824D02*
X214478Y9528D01*
X204484Y2874D02*
X213084Y11474D01*
X215582Y8928D02*
X221637Y2874D01*
X211165D02*
X216981Y8689D01*
X124308Y2874D02*
X165758Y44324D01*
X154026Y43760D02*
X194912Y2874D01*
X110945D02*
X152630Y44559D01*
X127649Y2874D02*
X168306Y43531D01*
X114286Y2874D02*
X154976Y43564D01*
X79591Y38019D02*
X114736Y2874D01*
X79418Y34851D02*
X111395Y2874D01*
X79441Y21465D02*
X98032Y2874D01*
X79150Y18415D02*
X94692Y2874D01*
X187780D02*
X212655Y27749D01*
X171903Y45926D02*
X214955Y2874D01*
X194462D02*
X215005Y23417D01*
X191121Y2874D02*
X213227Y24980D01*
X170342Y44147D02*
X211615Y2874D01*
X158866Y45601D02*
X201593Y2874D01*
X167574Y43575D02*
X208274Y2874D01*
X157146Y43980D02*
X198252Y2874D01*
X41673Y75936D02*
X77118Y40491D01*
X38333Y75936D02*
X73951Y40318D01*
X34992Y75936D02*
X72214Y38714D01*
X77980Y40063D02*
X113854Y75936D01*
X75282Y40705D02*
X110513Y75936D01*
X32819Y65056D02*
X43700Y75936D01*
X32553Y68131D02*
X40359Y75936D01*
X32819Y61720D02*
Y67600D01*
X32816Y61712D02*
X47040Y75936D01*
X51028Y36495D02*
X90469Y75936D01*
X33019Y31849D02*
X77106Y75936D01*
X32203Y24352D02*
X83788Y75936D01*
X75668Y24388D02*
X127216Y75936D01*
X52644Y34771D02*
X93810Y75936D01*
X32244Y34415D02*
X73766Y75936D01*
X31651D02*
X71724Y35864D01*
X33019Y31849D02*
X77106Y75936D01*
X32819Y64747D02*
X73635Y23931D01*
X28061Y70319D02*
X33678Y75936D01*
X30883Y69801D02*
X37018Y75936D01*
X2874D02*
X131812D01*
X30552Y70132D02*
X32632Y68052D01*
X30412Y59048D02*
X32632Y61268D01*
X21630Y75936D02*
X27247Y70319D01*
X21379D02*
X26996Y75936D01*
X24720Y70319D02*
X30337Y75936D01*
X15000Y70319D02*
X30100D01*
X30068Y35580D02*
X70425Y75936D01*
X19754Y31947D02*
X63744Y75936D01*
X19742Y35276D02*
X60403Y75936D01*
X29833Y25322D02*
X80447Y75936D01*
X24970D02*
X76686Y24221D01*
X31542Y53756D02*
X53722Y75936D01*
X30590Y56145D02*
X50381Y75936D01*
X28265Y57161D02*
X29969Y58864D01*
X19700Y38574D02*
X57062Y75936D01*
X28683Y58861D02*
X51070Y36474D01*
X31393Y52810D02*
X47829Y36374D01*
X29932Y50930D02*
X46343Y34520D01*
X78097Y23477D02*
X105054Y50434D01*
X25769Y58861D02*
X29960D01*
X19624Y44535D02*
X28702Y35457D01*
X26059Y58144D02*
X27190Y57013D01*
X19658Y41873D02*
X28224Y50438D01*
X19754Y34383D02*
X28938Y25199D01*
X25855Y24685D02*
X30071Y28901D01*
X25855Y24685D02*
X30071Y28901D01*
X19711Y37767D02*
X26611Y30867D01*
X19668Y41151D02*
X26816Y34002D01*
X23952Y26123D02*
X27505Y29676D01*
X19409Y31388D02*
X27014Y23782D01*
X14948Y75936D02*
X20565Y70319D01*
X18039D02*
X23656Y75936D01*
X11608D02*
X17225Y70319D01*
X18289Y75936D02*
X23906Y70319D01*
X8267Y75936D02*
X14310Y69894D01*
X7468Y63052D02*
X14548Y70132D01*
X7281Y60381D02*
Y62600D01*
X26135Y56469D02*
Y57511D01*
X19574Y48470D02*
X23797Y52693D01*
X19521Y52672D02*
X23462D01*
X19532Y51769D02*
X20436Y52672D01*
X19521D02*
X19784Y32032D01*
X4926Y75936D02*
X12639Y68223D01*
X2874Y65176D02*
X13634Y75936D01*
X2874Y68517D02*
X10293Y75936D01*
X2874Y74648D02*
X10969Y66553D01*
X2874Y61836D02*
X16974Y75936D01*
X2874Y71858D02*
X6953Y75936D01*
X2874Y75198D02*
X3612Y75936D01*
X2874Y67967D02*
X7628Y63212D01*
X2874Y71307D02*
X9299Y64883D01*
X3974Y60381D02*
X7281D01*
X4760D02*
X20315Y75936D01*
X2874Y64626D02*
X7119Y60381D01*
X2874Y48473D02*
X6876Y52475D01*
X2874Y61285D02*
X3785Y60374D01*
X2874Y60144D02*
Y75936D01*
Y26128D02*
Y52712D01*
X19616Y45171D02*
X25835Y51390D01*
X17719Y29737D02*
X21288Y26168D01*
X16967Y29003D02*
X19591Y31566D01*
X18934Y26168D02*
X23462D01*
X11100Y28821D02*
X16520D01*
X7281Y32640D02*
Y52475D01*
X5003D02*
X7281Y50197D01*
X7491Y26365D02*
X10391Y29265D01*
X7468Y32188D02*
X10648Y29008D01*
X20657Y26168D02*
X26340Y31852D01*
X15294Y28821D02*
X18085Y26030D01*
X11174Y23367D02*
X16705Y28897D01*
X10212Y25746D02*
X13288Y28821D01*
X11954D02*
X16407Y24367D01*
X2874Y44582D02*
X7281Y40175D01*
X2874Y38451D02*
X7281Y42858D01*
X2874Y41792D02*
X7281Y46199D01*
X2874Y35111D02*
X7281Y39517D01*
X2874Y41241D02*
X7281Y36834D01*
X3974Y52475D02*
X7281D01*
X2874Y51263D02*
X7281Y46856D01*
X2874Y47923D02*
X7281Y43516D01*
X2874Y45132D02*
X7281Y49539D01*
X2874Y31219D02*
X7728Y26365D01*
X2874Y28429D02*
X7281Y32836D01*
X4151Y26365D02*
X8721Y30935D01*
X3974Y26365D02*
X8501D01*
X2874Y31770D02*
X7281Y36177D01*
X2874Y37901D02*
X7281Y33494D01*
X2874Y27879D02*
X4388Y26365D01*
X77121Y9138D02*
X143920Y75936D01*
X78703Y7379D02*
X147260Y75936D01*
X58377D02*
X131439Y2874D01*
X78806Y4142D02*
X150601Y75936D01*
X74316Y9673D02*
X135749Y71107D01*
X55036Y75936D02*
X128098Y2874D01*
X52734Y21498D02*
X107172Y75936D01*
X56105Y18188D02*
X72317Y34400D01*
X54951Y20374D02*
X71675Y37099D01*
X68399Y75936D02*
X141461Y2874D01*
X71739Y75936D02*
X144802Y2874D01*
X65058Y75936D02*
X138120Y2874D01*
X78421Y75936D02*
X151483Y2874D01*
X75080Y75936D02*
X148142Y2874D01*
X64176D02*
X132853Y71551D01*
X61717Y75936D02*
X134780Y2874D01*
X77814Y33114D02*
X108054Y2874D01*
X74964Y32624D02*
X104714Y2874D01*
X33202Y22010D02*
X87128Y75936D01*
X32423Y7869D02*
X100491Y75936D01*
X31545Y10331D02*
X97150Y75936D01*
X48816Y7559D02*
X74135Y32877D01*
X32727Y61498D02*
X71942Y22283D01*
X31124Y59760D02*
X71543Y19341D01*
X10430Y19282D02*
X67084Y75936D01*
X21509Y52672D02*
X52674Y21507D01*
X19538Y51302D02*
X49912Y20929D01*
X45014Y75936D02*
X118076Y2874D01*
X48355Y75936D02*
X121417Y2874D01*
X30770D02*
X103832Y75936D01*
X51696D02*
X124758Y2874D01*
X50813D02*
X123876Y75936D01*
X28311D02*
X101373Y2874D01*
X26778Y50744D02*
X71005Y6517D01*
X52534Y35010D02*
X84670Y2874D01*
X47473D02*
X77591Y32992D01*
X56127Y18054D02*
X71307Y2874D01*
X77503Y16722D02*
X91351Y2874D01*
X74561Y16323D02*
X88010Y2874D01*
X79060Y5143D02*
X81329Y2874D01*
X78014D02*
X272716D01*
X60835D02*
X74344Y16382D01*
X57495Y2874D02*
X72343Y17723D01*
X67517Y2874D02*
X70967Y6324D01*
X52434Y31769D02*
X74503Y9700D01*
X50580Y30283D02*
X72221Y8642D01*
X47819Y9902D02*
X51352Y13435D01*
X45749Y11173D02*
X49166Y14589D01*
X55549Y15292D02*
X67967Y2874D01*
X54154D02*
X71432Y20152D01*
X53767Y13733D02*
X64626Y2874D01*
X29225D02*
X71986D01*
X50452Y13708D02*
X61285Y2874D01*
X31442Y29377D02*
X57945Y2874D01*
X48513Y5625D02*
X51263Y2874D01*
X48357Y9121D02*
X54604Y2874D01*
X26135Y21330D02*
Y23495D01*
X32897Y31262D02*
X48327Y15832D01*
X29762Y11888D02*
X48249Y30375D01*
X26938Y12405D02*
X46525Y31992D01*
X33079Y21058D02*
X43158Y10980D01*
X28307Y29171D02*
X46654Y10824D01*
X31662Y19134D02*
X41330Y9466D01*
X20031Y12179D02*
X27448Y19597D01*
X28635Y18821D02*
X40673Y6783D01*
X24983Y19132D02*
X41241Y2874D01*
X16261Y21330D02*
Y23495D01*
X19581Y47918D02*
X48353Y19147D01*
X2874Y34560D02*
X16266Y21168D01*
X11174Y21133D02*
Y23692D01*
X10866Y19886D02*
X18573Y12179D01*
X11174Y22919D02*
X21995Y12099D01*
X6668Y12179D02*
X16261Y21772D01*
X18773Y18661D02*
X25445Y11989D01*
X10009Y12179D02*
X17160Y19330D01*
X3327Y12179D02*
X10352Y19204D01*
X2874Y12179D02*
Y18696D01*
X22439Y2874D02*
X25775D01*
X34110D02*
X48042Y16806D01*
X37451Y2874D02*
X40777Y6200D01*
X32350Y8425D02*
X37901Y2874D01*
X46999Y3797D02*
X47923Y2874D01*
X40791D02*
X42047Y4130D01*
X31989Y5445D02*
X34560Y2874D01*
X30508Y3585D02*
X31219Y2874D01*
X18934Y18656D02*
X23462D01*
X22118D02*
X28425Y12350D01*
X8919Y18492D02*
X15233Y12179D01*
X5612Y18460D02*
X11892Y12179D01*
X2874D02*
X21800D01*
X3974Y18460D02*
X8501D01*
X2874Y15067D02*
X6267Y18460D01*
X2874Y14516D02*
X5211Y12179D01*
X2874Y17857D02*
X8551Y12179D01*
X22439Y11247D02*
X29790Y18598D01*
X16690Y12179D02*
X23167Y18656D01*
X22439Y4973D02*
X24538Y2874D01*
X22359Y11735D02*
X23585Y10508D01*
X13349Y12179D02*
X19827Y18656D01*
X13349Y12179D02*
X19827Y18656D01*
X22439Y2874D02*
Y11540D01*
X2874Y12146D02*
X12146D01*
D58*
X27900Y27800D02*
Y51225D01*
X22697Y56428D02*
X27900Y51225D01*
X22512Y22412D02*
X27900Y27800D01*
X21198Y56428D02*
X22697D01*
D65*
X266600Y55660D02*
D03*
Y23000D02*
D03*
D66*
X7500Y7500D02*
D03*
D67*
X17500D02*
D03*
X27500D02*
D03*
D68*
X6237Y22412D02*
D03*
Y56428D02*
D03*
D69*
X21198Y22412D02*
D03*
Y56428D02*
D03*
D70*
X239160Y8020D02*
D03*
X239080Y31400D02*
D03*
X161840Y54160D02*
D03*
X155320Y47640D02*
D03*
X168180Y47620D02*
D03*
X250920Y12780D02*
D03*
X228280D02*
D03*
X216960D02*
D03*
X216700Y27140D02*
D03*
X228020D02*
D03*
X250660D02*
D03*
X52080Y17460D02*
D03*
X75520Y20300D02*
D03*
X75740Y36640D02*
D03*
X44741Y7208D02*
D03*
X75000Y5640D02*
D03*
X28500Y64500D02*
D03*
X13500Y33500D02*
D03*
Y45500D02*
D03*
D71*
X28180Y53800D02*
D03*
X29840Y21960D02*
D03*
X29680Y32240D02*
D03*
X49540Y33480D02*
D03*
X134760Y74320D02*
D03*
X108040Y51980D02*
D03*
D72*
X13500Y45500D02*
Y61000D01*
Y33500D02*
Y45500D01*
X17000Y64500D02*
X28500D01*
X13500Y61000D02*
X17000Y64500D01*
D73*
X238870Y19170D02*
D03*
M02*
