G04*
G04 #@! TF.GenerationSoftware,Altium Limited,Altium Designer,22.1.2 (22)*
G04*
G04 Layer_Color=16777215*
%FSLAX25Y25*%
%MOIN*%
G70*
G04*
G04 #@! TF.SameCoordinates,174BC2DA-B873-4BC2-8B21-C8E9C5FF9B9E*
G04*
G04*
G04 #@! TF.FilePolarity,Positive*
G04*
G01*
G75*
%ADD10C,0.01000*%
%ADD11C,0.01968*%
%ADD12C,0.02000*%
%ADD13C,0.00800*%
%ADD14C,0.01181*%
D10*
X176900Y47500D02*
G03*
X176900Y15500I14000J-16000D01*
G01*
X204900D02*
G03*
X204900Y47500I-14000J16000D01*
G01*
X211491Y7091D02*
G03*
X215309Y10909I0J3819D01*
G01*
Y52091D02*
G03*
X211491Y55909I-3819J0D01*
G01*
X170309D02*
G03*
X166491Y52091I0J-3819D01*
G01*
Y10909D02*
G03*
X170309Y7091I3819J0D01*
G01*
X111900Y19400D02*
G03*
X111900Y19400I-500J0D01*
G01*
X215309Y10909D02*
Y52091D01*
X204581Y7091D02*
X211491D01*
X204581Y55909D02*
X211491D01*
X170309D02*
X177219D01*
X166491Y10909D02*
Y52091D01*
X170309Y7091D02*
X177219D01*
X119393Y38831D02*
Y47689D01*
X162393D01*
Y38831D02*
Y47689D01*
X69100Y31563D02*
X108500D01*
X108500Y51248D02*
X108500Y31563D01*
X93700Y70928D02*
X100700D01*
X108500Y63048D02*
X108500Y31563D01*
X93900D02*
X108500D01*
X69100D02*
X69100Y63048D01*
X69100Y31563D02*
X83700D01*
X76974Y70928D02*
X83900D01*
X100700D02*
X108500Y63048D01*
X69100D02*
X76974Y70928D01*
X-3987Y19420D02*
Y59420D01*
X25513Y19420D02*
Y59420D01*
X-3987D02*
X25513D01*
X-3987Y19420D02*
X25513D01*
X60600Y66550D02*
X64200D01*
X58900Y64850D02*
X60600Y66550D01*
X58900Y59600D02*
Y64850D01*
X65900Y59600D02*
Y64850D01*
X64200Y66550D02*
X65900Y64850D01*
X59230Y56910D02*
X65710D01*
X58900Y44600D02*
X65900D01*
Y51100D01*
X58900Y44600D02*
Y51100D01*
X59350Y53710D02*
X62550Y56910D01*
X59350Y53710D02*
X65520D01*
X62480Y56750D02*
X65520Y53710D01*
X39500Y74500D02*
X44000D01*
Y63000D02*
Y65000D01*
X35000Y68500D02*
Y69000D01*
X44000Y72500D02*
Y74500D01*
X39500Y63000D02*
X44000D01*
X219100Y47548D02*
X226974Y55428D01*
X250700D02*
X258500Y47548D01*
X226974Y55428D02*
X233900D01*
X219100Y16063D02*
X233700D01*
X219100D02*
X219100Y47548D01*
X243900Y16063D02*
X258500D01*
X258500Y47548D02*
X258500Y16063D01*
X243700Y55428D02*
X250700D01*
X258500Y35748D02*
X258500Y16063D01*
X219100D02*
X258500D01*
X96900Y14100D02*
X97990Y13900D01*
X96900Y12700D02*
Y14100D01*
Y12700D02*
X99100Y13900D01*
X96600Y15100D02*
X99100Y13900D01*
X104400Y17900D02*
Y19215D01*
X107900Y17900D02*
Y19900D01*
X104400Y8585D02*
Y9900D01*
X107900Y7900D02*
Y9900D01*
X87270Y18152D02*
Y19900D01*
Y7900D02*
X107900D01*
X87270D02*
Y9550D01*
Y19900D02*
X107900D01*
X49520Y76043D02*
Y72894D01*
X51094Y71320D01*
X52669Y72894D01*
Y76043D01*
X54243Y71320D02*
Y76043D01*
X56604D01*
X57392Y75256D01*
Y73681D01*
X56604Y72894D01*
X54243D01*
X58966Y76043D02*
Y71320D01*
X61327D01*
X62114Y72107D01*
Y75256D01*
X61327Y76043D01*
X58966D01*
X29149Y16436D02*
X28361Y17223D01*
X26787D01*
X26000Y16436D01*
Y13287D01*
X26787Y12500D01*
X28361D01*
X29149Y13287D01*
Y14861D01*
X27574D01*
X15750Y17223D02*
Y12500D01*
X18899D01*
X5500D02*
Y15649D01*
X7074Y17223D01*
X8649Y15649D01*
Y12500D01*
Y14861D01*
X5500D01*
X54500Y38223D02*
Y35074D01*
X56074Y33500D01*
X57649Y35074D01*
Y38223D01*
D11*
X160680Y63100D02*
G03*
X160680Y63100I-787J0D01*
G01*
D12*
X44394Y37500D02*
G03*
X44394Y37500I-394J0D01*
G01*
D13*
X59400Y30100D02*
X65200D01*
X59400Y42300D02*
X65200D01*
X65400Y30100D02*
Y34900D01*
X59200Y30100D02*
Y34900D01*
Y42300D01*
X65400Y34900D02*
Y42300D01*
X45000Y21000D02*
X46000Y21000D01*
Y33000D01*
X45000D02*
X46000D01*
X34000Y21000D02*
X35000Y21000D01*
X34000Y21000D02*
Y33000D01*
X35000D01*
X46350Y45700D02*
Y53100D01*
X40150Y45700D02*
Y53100D01*
Y40900D02*
Y45700D01*
X46350Y40900D02*
Y45700D01*
X40350Y53100D02*
X46150D01*
X40350Y40900D02*
X46150D01*
X48800Y53100D02*
X54600D01*
X48800Y40900D02*
X54600D01*
X48600Y48300D02*
Y53100D01*
X54800Y48300D02*
Y53100D01*
Y40900D02*
Y48300D01*
X48600Y40900D02*
Y48300D01*
X31600Y40900D02*
X37400D01*
X31600Y53100D02*
X37400D01*
X37600Y40900D02*
Y45700D01*
X31400Y40900D02*
Y45700D01*
Y53100D01*
X37600Y45700D02*
Y53100D01*
X40300Y55200D02*
Y61000D01*
X52500Y55200D02*
Y61000D01*
X40300Y55000D02*
X45100D01*
X40300Y61200D02*
X45100D01*
X52500D01*
X45100Y55000D02*
X52500D01*
X178400Y71400D02*
Y77200D01*
X166200Y71400D02*
Y77200D01*
X173600Y77400D02*
X178400D01*
X173600Y71200D02*
X178400D01*
X166200D02*
X173600D01*
X166200Y77400D02*
X173600D01*
X166200Y62200D02*
Y68000D01*
X178400Y62200D02*
Y68000D01*
X166200Y62000D02*
X171000D01*
X166200Y68200D02*
X171000D01*
X178400D01*
X171000Y62000D02*
X178400D01*
X149600Y71400D02*
Y77200D01*
X137400Y71400D02*
Y77200D01*
X144800Y77400D02*
X149600D01*
X144800Y71200D02*
X149600D01*
X137400D02*
X144800D01*
X137400Y77400D02*
X144800D01*
X99845Y11900D02*
Y15900D01*
X96345Y11900D02*
X99845Y13900D01*
X96345Y11900D02*
Y15900D01*
X99845Y13900D01*
X111400Y48000D02*
X117200D01*
X111400Y60200D02*
X117200D01*
X117400Y48000D02*
Y52800D01*
X111200Y48000D02*
Y52800D01*
Y60200D01*
X117400Y52800D02*
Y60200D01*
X261500Y32900D02*
X267300D01*
X261500Y45100D02*
X267300D01*
X267500Y32900D02*
Y37700D01*
X261300Y32900D02*
Y37700D01*
Y45100D01*
X267500Y37700D02*
Y45100D01*
D14*
X102848Y63574D02*
X96100D01*
X99474Y66948D02*
Y60200D01*
X252848Y48074D02*
X246100D01*
X249474Y51448D02*
Y44700D01*
M02*
