G04*
G04 #@! TF.GenerationSoftware,Altium Limited,Altium Designer,22.1.2 (22)*
G04*
G04 Layer_Color=2752767*
%FSLAX25Y25*%
%MOIN*%
G70*
G04*
G04 #@! TF.SameCoordinates,174BC2DA-B873-4BC2-8B21-C8E9C5FF9B9E*
G04*
G04*
G04 #@! TF.FilePolarity,Positive*
G04*
G01*
G75*
%ADD10C,0.01000*%
%ADD74C,0.00600*%
%ADD78C,0.00200*%
%ADD79C,0.00267*%
%ADD80C,0.01600*%
%ADD81C,0.01400*%
D10*
X206624Y233908D02*
X205050Y233121D01*
X203476Y231546D01*
Y229972D01*
X204263Y229185D01*
X205837D01*
X206624Y229972D01*
Y230759D01*
X205837Y231546D01*
X203476D01*
X262433Y229185D02*
X259285D01*
X262433Y232333D01*
Y233121D01*
X261646Y233908D01*
X260072D01*
X259285Y233121D01*
X264008D02*
X264795Y233908D01*
X266369D01*
X267156Y233121D01*
Y232333D01*
X266369Y231546D01*
X265582D01*
X266369D01*
X267156Y230759D01*
Y229972D01*
X266369Y229185D01*
X264795D01*
X264008Y229972D01*
X268730Y229185D02*
Y229972D01*
X269518D01*
Y229185D01*
X268730D01*
X275815Y233908D02*
X274240Y233121D01*
X272666Y231546D01*
Y229972D01*
X273453Y229185D01*
X275028D01*
X275815Y229972D01*
Y230759D01*
X275028Y231546D01*
X272666D01*
X280538Y229185D02*
X277389D01*
X280538Y232333D01*
Y233121D01*
X279750Y233908D01*
X278176D01*
X277389Y233121D01*
X285261Y229185D02*
X282112D01*
X285261Y232333D01*
Y233121D01*
X284473Y233908D01*
X282899D01*
X282112Y233121D01*
X286835Y229185D02*
Y232333D01*
X287622D01*
X288409Y231546D01*
Y229185D01*
Y231546D01*
X289196Y232333D01*
X289983Y231546D01*
Y229185D01*
X291558D02*
X293132D01*
X292345D01*
Y232333D01*
X291558D01*
X295494Y229185D02*
X297068D01*
X296281D01*
Y233908D01*
X295494D01*
X305726Y229185D02*
X304152Y230759D01*
Y232333D01*
X305726Y233908D01*
X308088Y233121D02*
X308875Y233908D01*
X310449D01*
X311236Y233121D01*
Y229972D01*
X310449Y229185D01*
X308875D01*
X308088Y229972D01*
Y233121D01*
X312811Y229185D02*
Y229972D01*
X313598D01*
Y229185D01*
X312811D01*
X319895Y233908D02*
X318321Y233121D01*
X316746Y231546D01*
Y229972D01*
X317534Y229185D01*
X319108D01*
X319895Y229972D01*
Y230759D01*
X319108Y231546D01*
X316746D01*
X321469Y229185D02*
Y232333D01*
X322256D01*
X323044Y231546D01*
Y229185D01*
Y231546D01*
X323831Y232333D01*
X324618Y231546D01*
Y229185D01*
X326192D02*
Y232333D01*
X326979D01*
X327766Y231546D01*
Y229185D01*
Y231546D01*
X328554Y232333D01*
X329341Y231546D01*
Y229185D01*
X330915D02*
X332489Y230759D01*
Y232333D01*
X330915Y233908D01*
X553285Y229185D02*
Y233908D01*
X555646D01*
X556433Y233121D01*
Y231546D01*
X555646Y230759D01*
X553285D01*
X558008Y233908D02*
X561156D01*
X559582D01*
Y229185D01*
X562731Y233908D02*
Y229185D01*
Y231546D01*
X565879D01*
Y233908D01*
Y229185D01*
X593981D02*
Y233908D01*
X596342D01*
X597129Y233121D01*
Y231546D01*
X596342Y230759D01*
X593981D01*
X595555D02*
X597129Y229185D01*
X599491D02*
X601065D01*
X601852Y229972D01*
Y231546D01*
X601065Y232333D01*
X599491D01*
X598703Y231546D01*
Y229972D01*
X599491Y229185D01*
X603426Y232333D02*
Y229972D01*
X604213Y229185D01*
X606575D01*
Y232333D01*
X608149Y229185D02*
Y232333D01*
X610511D01*
X611298Y231546D01*
Y229185D01*
X616021Y233908D02*
Y229185D01*
X613659D01*
X612872Y229972D01*
Y231546D01*
X613659Y232333D01*
X616021D01*
X203476Y219736D02*
X205050D01*
X204263D01*
Y224459D01*
X203476Y223672D01*
X262433Y219736D02*
X259285D01*
X262433Y222885D01*
Y223672D01*
X261646Y224459D01*
X260072D01*
X259285Y223672D01*
X264008Y224459D02*
X267156D01*
Y223672D01*
X264008Y220523D01*
Y219736D01*
X268730D02*
Y220523D01*
X269518D01*
Y219736D01*
X268730D01*
X272666Y220523D02*
X273453Y219736D01*
X275028D01*
X275815Y220523D01*
Y223672D01*
X275028Y224459D01*
X273453D01*
X272666Y223672D01*
Y222885D01*
X273453Y222097D01*
X275815D01*
X277389Y220523D02*
X278176Y219736D01*
X279750D01*
X280538Y220523D01*
Y223672D01*
X279750Y224459D01*
X278176D01*
X277389Y223672D01*
Y222885D01*
X278176Y222097D01*
X280538D01*
X285261Y219736D02*
X282112D01*
X285261Y222885D01*
Y223672D01*
X284473Y224459D01*
X282899D01*
X282112Y223672D01*
X286835Y219736D02*
Y222885D01*
X287622D01*
X288409Y222097D01*
Y219736D01*
Y222097D01*
X289196Y222885D01*
X289983Y222097D01*
Y219736D01*
X291558D02*
X293132D01*
X292345D01*
Y222885D01*
X291558D01*
X295494Y219736D02*
X297068D01*
X296281D01*
Y224459D01*
X295494D01*
X305726Y219736D02*
X304152Y221310D01*
Y222885D01*
X305726Y224459D01*
X308088Y223672D02*
X308875Y224459D01*
X310449D01*
X311236Y223672D01*
Y220523D01*
X310449Y219736D01*
X308875D01*
X308088Y220523D01*
Y223672D01*
X312811Y219736D02*
Y220523D01*
X313598D01*
Y219736D01*
X312811D01*
X316746Y224459D02*
X319895D01*
Y223672D01*
X316746Y220523D01*
Y219736D01*
X321469D02*
X323044D01*
X322256D01*
Y224459D01*
X321469Y223672D01*
X325405Y219736D02*
X326979D01*
X326192D01*
Y224459D01*
X325405Y223672D01*
X329341Y219736D02*
Y222885D01*
X330128D01*
X330915Y222097D01*
Y219736D01*
Y222097D01*
X331702Y222885D01*
X332489Y222097D01*
Y219736D01*
X334064D02*
Y222885D01*
X334851D01*
X335638Y222097D01*
Y219736D01*
Y222097D01*
X336425Y222885D01*
X337212Y222097D01*
Y219736D01*
X338787D02*
X340361Y221310D01*
Y222885D01*
X338787Y224459D01*
X553285Y219736D02*
Y224459D01*
X555646D01*
X556433Y223672D01*
Y222097D01*
X555646Y221310D01*
X553285D01*
X558008Y224459D02*
X561156D01*
X559582D01*
Y219736D01*
X562731Y224459D02*
Y219736D01*
Y222097D01*
X565879D01*
Y224459D01*
Y219736D01*
X593981D02*
Y224459D01*
X596342D01*
X597129Y223672D01*
Y222097D01*
X596342Y221310D01*
X593981D01*
X595555D02*
X597129Y219736D01*
X599491D02*
X601065D01*
X601852Y220523D01*
Y222097D01*
X601065Y222885D01*
X599491D01*
X598703Y222097D01*
Y220523D01*
X599491Y219736D01*
X603426Y222885D02*
Y220523D01*
X604213Y219736D01*
X606575D01*
Y222885D01*
X608149Y219736D02*
Y222885D01*
X610511D01*
X611298Y222097D01*
Y219736D01*
X616021Y224459D02*
Y219736D01*
X613659D01*
X612872Y220523D01*
Y222097D01*
X613659Y222885D01*
X616021D01*
X203476Y210287D02*
X205050D01*
X204263D01*
Y215010D01*
X203476Y214223D01*
X207412D02*
X208199Y215010D01*
X209773D01*
X210560Y214223D01*
Y213436D01*
X209773Y212649D01*
X210560Y211861D01*
Y211074D01*
X209773Y210287D01*
X208199D01*
X207412Y211074D01*
Y211861D01*
X208199Y212649D01*
X207412Y213436D01*
Y214223D01*
X208199Y212649D02*
X209773D01*
X262433Y210287D02*
X259285D01*
X262433Y213436D01*
Y214223D01*
X261646Y215010D01*
X260072D01*
X259285Y214223D01*
X264008D02*
X264795Y215010D01*
X266369D01*
X267156Y214223D01*
Y213436D01*
X266369Y212649D01*
X267156Y211861D01*
Y211074D01*
X266369Y210287D01*
X264795D01*
X264008Y211074D01*
Y211861D01*
X264795Y212649D01*
X264008Y213436D01*
Y214223D01*
X264795Y212649D02*
X266369D01*
X268730Y210287D02*
Y213436D01*
X269518D01*
X270305Y212649D01*
Y210287D01*
Y212649D01*
X271092Y213436D01*
X271879Y212649D01*
Y210287D01*
X273453D02*
X275028D01*
X274240D01*
Y213436D01*
X273453D01*
X277389Y210287D02*
X278963D01*
X278176D01*
Y215010D01*
X277389D01*
X287622Y210287D02*
X286048Y211861D01*
Y213436D01*
X287622Y215010D01*
X289983Y214223D02*
X290771Y215010D01*
X292345D01*
X293132Y214223D01*
Y211074D01*
X292345Y210287D01*
X290771D01*
X289983Y211074D01*
Y214223D01*
X294706Y210287D02*
Y211074D01*
X295494D01*
Y210287D01*
X294706D01*
X298642Y215010D02*
X301791D01*
Y214223D01*
X298642Y211074D01*
Y210287D01*
X303365D02*
X304939D01*
X304152D01*
Y215010D01*
X303365Y214223D01*
X307301Y210287D02*
X308875D01*
X308088D01*
Y215010D01*
X307301Y214223D01*
X314385Y210287D02*
X311236D01*
X314385Y213436D01*
Y214223D01*
X313598Y215010D01*
X312024D01*
X311236Y214223D01*
X315959Y210287D02*
Y213436D01*
X316746D01*
X317534Y212649D01*
Y210287D01*
Y212649D01*
X318321Y213436D01*
X319108Y212649D01*
Y210287D01*
X320682D02*
Y213436D01*
X321469D01*
X322256Y212649D01*
Y210287D01*
Y212649D01*
X323044Y213436D01*
X323831Y212649D01*
Y210287D01*
X325405D02*
X326979Y211861D01*
Y213436D01*
X325405Y215010D01*
X553285Y210287D02*
Y215010D01*
X555646D01*
X556433Y214223D01*
Y212649D01*
X555646Y211861D01*
X553285D01*
X558008Y215010D02*
X561156D01*
X559582D01*
Y210287D01*
X562731Y215010D02*
Y210287D01*
Y212649D01*
X565879D01*
Y215010D01*
Y210287D01*
X593981D02*
Y215010D01*
X596342D01*
X597129Y214223D01*
Y212649D01*
X596342Y211861D01*
X593981D01*
X595555D02*
X597129Y210287D01*
X599491D02*
X601065D01*
X601852Y211074D01*
Y212649D01*
X601065Y213436D01*
X599491D01*
X598703Y212649D01*
Y211074D01*
X599491Y210287D01*
X603426Y213436D02*
Y211074D01*
X604213Y210287D01*
X606575D01*
Y213436D01*
X608149Y210287D02*
Y213436D01*
X610511D01*
X611298Y212649D01*
Y210287D01*
X616021Y215010D02*
Y210287D01*
X613659D01*
X612872Y211074D01*
Y212649D01*
X613659Y213436D01*
X616021D01*
X203476Y204774D02*
X204263Y205561D01*
X205837D01*
X206624Y204774D01*
Y203987D01*
X205837Y203200D01*
X205050D01*
X205837D01*
X206624Y202413D01*
Y201625D01*
X205837Y200838D01*
X204263D01*
X203476Y201625D01*
X259285Y204774D02*
X260072Y205561D01*
X261646D01*
X262433Y204774D01*
Y203987D01*
X261646Y203200D01*
X260859D01*
X261646D01*
X262433Y202413D01*
Y201625D01*
X261646Y200838D01*
X260072D01*
X259285Y201625D01*
X267156Y205561D02*
X264008D01*
Y203200D01*
X265582Y203987D01*
X266369D01*
X267156Y203200D01*
Y201625D01*
X266369Y200838D01*
X264795D01*
X264008Y201625D01*
X268730Y200838D02*
Y201625D01*
X269518D01*
Y200838D01*
X268730D01*
X275028D02*
Y205561D01*
X272666Y203200D01*
X275815D01*
X277389Y204774D02*
X278176Y205561D01*
X279750D01*
X280538Y204774D01*
Y203987D01*
X279750Y203200D01*
X278963D01*
X279750D01*
X280538Y202413D01*
Y201625D01*
X279750Y200838D01*
X278176D01*
X277389Y201625D01*
X282112Y204774D02*
X282899Y205561D01*
X284473D01*
X285261Y204774D01*
Y203987D01*
X284473Y203200D01*
X283686D01*
X284473D01*
X285261Y202413D01*
Y201625D01*
X284473Y200838D01*
X282899D01*
X282112Y201625D01*
X286835Y200838D02*
Y203987D01*
X287622D01*
X288409Y203200D01*
Y200838D01*
Y203200D01*
X289196Y203987D01*
X289983Y203200D01*
Y200838D01*
X291558D02*
X293132D01*
X292345D01*
Y203987D01*
X291558D01*
X295494Y200838D02*
X297068D01*
X296281D01*
Y205561D01*
X295494D01*
X305726Y200838D02*
X304152Y202413D01*
Y203987D01*
X305726Y205561D01*
X308088Y204774D02*
X308875Y205561D01*
X310449D01*
X311236Y204774D01*
Y201625D01*
X310449Y200838D01*
X308875D01*
X308088Y201625D01*
Y204774D01*
X312811Y200838D02*
Y201625D01*
X313598D01*
Y200838D01*
X312811D01*
X316746Y201625D02*
X317534Y200838D01*
X319108D01*
X319895Y201625D01*
Y204774D01*
X319108Y205561D01*
X317534D01*
X316746Y204774D01*
Y203987D01*
X317534Y203200D01*
X319895D01*
X321469Y200838D02*
Y203987D01*
X322256D01*
X323044Y203200D01*
Y200838D01*
Y203200D01*
X323831Y203987D01*
X324618Y203200D01*
Y200838D01*
X326192D02*
Y203987D01*
X326979D01*
X327766Y203200D01*
Y200838D01*
Y203200D01*
X328554Y203987D01*
X329341Y203200D01*
Y200838D01*
X330915D02*
X332489Y202413D01*
Y203987D01*
X330915Y205561D01*
X553285Y200838D02*
Y205561D01*
X555646D01*
X556433Y204774D01*
Y203200D01*
X555646Y202413D01*
X553285D01*
X558008Y205561D02*
X561156D01*
X559582D01*
Y200838D01*
X562731Y205561D02*
Y200838D01*
Y203200D01*
X565879D01*
Y205561D01*
Y200838D01*
X593981D02*
Y205561D01*
X596342D01*
X597129Y204774D01*
Y203200D01*
X596342Y202413D01*
X593981D01*
X595555D02*
X597129Y200838D01*
X599491D02*
X601065D01*
X601852Y201625D01*
Y203200D01*
X601065Y203987D01*
X599491D01*
X598703Y203200D01*
Y201625D01*
X599491Y200838D01*
X603426Y203987D02*
Y201625D01*
X604213Y200838D01*
X606575D01*
Y203987D01*
X608149Y200838D02*
Y203987D01*
X610511D01*
X611298Y203200D01*
Y200838D01*
X616021Y205561D02*
Y200838D01*
X613659D01*
X612872Y201625D01*
Y203200D01*
X613659Y203987D01*
X616021D01*
X206624Y191390D02*
X203476D01*
X206624Y194538D01*
Y195325D01*
X205837Y196112D01*
X204263D01*
X203476Y195325D01*
X259285Y196112D02*
X262433D01*
Y195325D01*
X259285Y192177D01*
Y191390D01*
X264008Y195325D02*
X264795Y196112D01*
X266369D01*
X267156Y195325D01*
Y192177D01*
X266369Y191390D01*
X264795D01*
X264008Y192177D01*
Y195325D01*
X268730Y191390D02*
Y192177D01*
X269518D01*
Y191390D01*
X268730D01*
X272666Y195325D02*
X273453Y196112D01*
X275028D01*
X275815Y195325D01*
Y194538D01*
X275028Y193751D01*
X275815Y192964D01*
Y192177D01*
X275028Y191390D01*
X273453D01*
X272666Y192177D01*
Y192964D01*
X273453Y193751D01*
X272666Y194538D01*
Y195325D01*
X273453Y193751D02*
X275028D01*
X280538Y196112D02*
X278963Y195325D01*
X277389Y193751D01*
Y192177D01*
X278176Y191390D01*
X279750D01*
X280538Y192177D01*
Y192964D01*
X279750Y193751D01*
X277389D01*
X285261Y196112D02*
X283686Y195325D01*
X282112Y193751D01*
Y192177D01*
X282899Y191390D01*
X284473D01*
X285261Y192177D01*
Y192964D01*
X284473Y193751D01*
X282112D01*
X286835Y191390D02*
Y194538D01*
X287622D01*
X288409Y193751D01*
Y191390D01*
Y193751D01*
X289196Y194538D01*
X289983Y193751D01*
Y191390D01*
X291558D02*
X293132D01*
X292345D01*
Y194538D01*
X291558D01*
X295494Y191390D02*
X297068D01*
X296281D01*
Y196112D01*
X295494D01*
X305726Y191390D02*
X304152Y192964D01*
Y194538D01*
X305726Y196112D01*
X308088Y191390D02*
X309662D01*
X308875D01*
Y196112D01*
X308088Y195325D01*
X312024Y191390D02*
Y192177D01*
X312811D01*
Y191390D01*
X312024D01*
X315959Y195325D02*
X316746Y196112D01*
X318321D01*
X319108Y195325D01*
Y194538D01*
X318321Y193751D01*
X319108Y192964D01*
Y192177D01*
X318321Y191390D01*
X316746D01*
X315959Y192177D01*
Y192964D01*
X316746Y193751D01*
X315959Y194538D01*
Y195325D01*
X316746Y193751D02*
X318321D01*
X320682Y191390D02*
Y194538D01*
X321469D01*
X322256Y193751D01*
Y191390D01*
Y193751D01*
X323044Y194538D01*
X323831Y193751D01*
Y191390D01*
X325405D02*
Y194538D01*
X326192D01*
X326979Y193751D01*
Y191390D01*
Y193751D01*
X327766Y194538D01*
X328554Y193751D01*
Y191390D01*
X330128D02*
X331702Y192964D01*
Y194538D01*
X330128Y196112D01*
X553285Y191390D02*
Y196112D01*
X555646D01*
X556433Y195325D01*
Y193751D01*
X555646Y192964D01*
X553285D01*
X558008Y196112D02*
X561156D01*
X559582D01*
Y191390D01*
X562731Y196112D02*
Y191390D01*
Y193751D01*
X565879D01*
Y196112D01*
Y191390D01*
X593981D02*
Y196112D01*
X596342D01*
X597129Y195325D01*
Y193751D01*
X596342Y192964D01*
X593981D01*
X595555D02*
X597129Y191390D01*
X599491D02*
X601065D01*
X601852Y192177D01*
Y193751D01*
X601065Y194538D01*
X599491D01*
X598703Y193751D01*
Y192177D01*
X599491Y191390D01*
X603426Y194538D02*
Y192177D01*
X604213Y191390D01*
X606575D01*
Y194538D01*
X608149Y191390D02*
Y194538D01*
X610511D01*
X611298Y193751D01*
Y191390D01*
X616021Y196112D02*
Y191390D01*
X613659D01*
X612872Y192177D01*
Y193751D01*
X613659Y194538D01*
X616021D01*
X205837Y181941D02*
Y186664D01*
X203476Y184302D01*
X206624D01*
X262433Y181941D02*
X259285D01*
X262433Y185089D01*
Y185877D01*
X261646Y186664D01*
X260072D01*
X259285Y185877D01*
X264008D02*
X264795Y186664D01*
X266369D01*
X267156Y185877D01*
Y185089D01*
X266369Y184302D01*
X265582D01*
X266369D01*
X267156Y183515D01*
Y182728D01*
X266369Y181941D01*
X264795D01*
X264008Y182728D01*
X268730Y181941D02*
Y182728D01*
X269518D01*
Y181941D01*
X268730D01*
X275815Y186664D02*
X274240Y185877D01*
X272666Y184302D01*
Y182728D01*
X273453Y181941D01*
X275028D01*
X275815Y182728D01*
Y183515D01*
X275028Y184302D01*
X272666D01*
X280538Y181941D02*
X277389D01*
X280538Y185089D01*
Y185877D01*
X279750Y186664D01*
X278176D01*
X277389Y185877D01*
X285261Y181941D02*
X282112D01*
X285261Y185089D01*
Y185877D01*
X284473Y186664D01*
X282899D01*
X282112Y185877D01*
X286835Y181941D02*
Y185089D01*
X287622D01*
X288409Y184302D01*
Y181941D01*
Y184302D01*
X289196Y185089D01*
X289983Y184302D01*
Y181941D01*
X291558D02*
X293132D01*
X292345D01*
Y185089D01*
X291558D01*
X295494Y181941D02*
X297068D01*
X296281D01*
Y186664D01*
X295494D01*
X305726Y181941D02*
X304152Y183515D01*
Y185089D01*
X305726Y186664D01*
X308088Y185877D02*
X308875Y186664D01*
X310449D01*
X311236Y185877D01*
Y182728D01*
X310449Y181941D01*
X308875D01*
X308088Y182728D01*
Y185877D01*
X312811Y181941D02*
Y182728D01*
X313598D01*
Y181941D01*
X312811D01*
X319895Y186664D02*
X318321Y185877D01*
X316746Y184302D01*
Y182728D01*
X317534Y181941D01*
X319108D01*
X319895Y182728D01*
Y183515D01*
X319108Y184302D01*
X316746D01*
X321469Y181941D02*
Y185089D01*
X322256D01*
X323044Y184302D01*
Y181941D01*
Y184302D01*
X323831Y185089D01*
X324618Y184302D01*
Y181941D01*
X326192D02*
Y185089D01*
X326979D01*
X327766Y184302D01*
Y181941D01*
Y184302D01*
X328554Y185089D01*
X329341Y184302D01*
Y181941D01*
X330915D02*
X332489Y183515D01*
Y185089D01*
X330915Y186664D01*
X368462Y181941D02*
Y186664D01*
X366101Y184302D01*
X369249D01*
X370824Y186664D02*
X373972D01*
Y185877D01*
X370824Y182728D01*
Y181941D01*
X375547D02*
Y182728D01*
X376334D01*
Y181941D01*
X375547D01*
X382631D02*
X379482D01*
X382631Y185089D01*
Y185877D01*
X381844Y186664D01*
X380269D01*
X379482Y185877D01*
X386567Y181941D02*
Y186664D01*
X384205Y184302D01*
X387354D01*
X391289Y181941D02*
Y186664D01*
X388928Y184302D01*
X392077D01*
X393651Y181941D02*
Y185089D01*
X394438D01*
X395225Y184302D01*
Y181941D01*
Y184302D01*
X396012Y185089D01*
X396799Y184302D01*
Y181941D01*
X398374D02*
X399948D01*
X399161D01*
Y185089D01*
X398374D01*
X402310Y181941D02*
X403884D01*
X403097D01*
Y186664D01*
X402310D01*
X412542Y181941D02*
X410968Y183515D01*
Y185089D01*
X412542Y186664D01*
X414904Y181941D02*
X416478D01*
X415691D01*
Y186664D01*
X414904Y185877D01*
X418840Y181941D02*
Y182728D01*
X419627D01*
Y181941D01*
X418840D01*
X425924D02*
X422775D01*
X425924Y185089D01*
Y185877D01*
X425137Y186664D01*
X423562D01*
X422775Y185877D01*
X427498Y181941D02*
Y185089D01*
X428285D01*
X429073Y184302D01*
Y181941D01*
Y184302D01*
X429860Y185089D01*
X430647Y184302D01*
Y181941D01*
X432221D02*
Y185089D01*
X433008D01*
X433795Y184302D01*
Y181941D01*
Y184302D01*
X434583Y185089D01*
X435370Y184302D01*
Y181941D01*
X436944D02*
X438518Y183515D01*
Y185089D01*
X436944Y186664D01*
X460008Y181941D02*
X456859D01*
X460008Y185089D01*
Y185877D01*
X459221Y186664D01*
X457646D01*
X456859Y185877D01*
X461582D02*
X462369Y186664D01*
X463943D01*
X464731Y185877D01*
Y185089D01*
X463943Y184302D01*
X463156D01*
X463943D01*
X464731Y183515D01*
Y182728D01*
X463943Y181941D01*
X462369D01*
X461582Y182728D01*
X466305Y181941D02*
Y182728D01*
X467092D01*
Y181941D01*
X466305D01*
X473389Y186664D02*
X471815Y185877D01*
X470241Y184302D01*
Y182728D01*
X471028Y181941D01*
X472602D01*
X473389Y182728D01*
Y183515D01*
X472602Y184302D01*
X470241D01*
X478112Y181941D02*
X474964D01*
X478112Y185089D01*
Y185877D01*
X477325Y186664D01*
X475751D01*
X474964Y185877D01*
X482835Y181941D02*
X479686D01*
X482835Y185089D01*
Y185877D01*
X482048Y186664D01*
X480474D01*
X479686Y185877D01*
X484409Y181941D02*
Y185089D01*
X485196D01*
X485984Y184302D01*
Y181941D01*
Y184302D01*
X486771Y185089D01*
X487558Y184302D01*
Y181941D01*
X489132D02*
X490706D01*
X489919D01*
Y185089D01*
X489132D01*
X493068Y181941D02*
X494642D01*
X493855D01*
Y186664D01*
X493068D01*
X503301Y181941D02*
X501726Y183515D01*
Y185089D01*
X503301Y186664D01*
X505662Y185877D02*
X506449Y186664D01*
X508024D01*
X508811Y185877D01*
Y182728D01*
X508024Y181941D01*
X506449D01*
X505662Y182728D01*
Y185877D01*
X510385Y181941D02*
Y182728D01*
X511172D01*
Y181941D01*
X510385D01*
X517469Y186664D02*
X515895Y185877D01*
X514321Y184302D01*
Y182728D01*
X515108Y181941D01*
X516682D01*
X517469Y182728D01*
Y183515D01*
X516682Y184302D01*
X514321D01*
X519044Y181941D02*
Y185089D01*
X519831D01*
X520618Y184302D01*
Y181941D01*
Y184302D01*
X521405Y185089D01*
X522192Y184302D01*
Y181941D01*
X523767D02*
Y185089D01*
X524554D01*
X525341Y184302D01*
Y181941D01*
Y184302D01*
X526128Y185089D01*
X526915Y184302D01*
Y181941D01*
X528489D02*
X530064Y183515D01*
Y185089D01*
X528489Y186664D01*
X553285Y181941D02*
Y186664D01*
X555646D01*
X556433Y185877D01*
Y184302D01*
X555646Y183515D01*
X553285D01*
X558008Y186664D02*
X561156D01*
X559582D01*
Y181941D01*
X562731Y186664D02*
Y181941D01*
Y184302D01*
X565879D01*
Y186664D01*
Y181941D01*
X597129Y185877D02*
X596342Y186664D01*
X594768D01*
X593981Y185877D01*
Y185089D01*
X594768Y184302D01*
X596342D01*
X597129Y183515D01*
Y182728D01*
X596342Y181941D01*
X594768D01*
X593981Y182728D01*
X598703Y181941D02*
X600278D01*
X599491D01*
Y186664D01*
X598703D01*
X603426Y181941D02*
X605001D01*
X605788Y182728D01*
Y184302D01*
X605001Y185089D01*
X603426D01*
X602639Y184302D01*
Y182728D01*
X603426Y181941D01*
X608149Y185877D02*
Y185089D01*
X607362D01*
X608936D01*
X608149D01*
Y182728D01*
X608936Y181941D01*
X203476Y176428D02*
X204263Y177215D01*
X205837D01*
X206624Y176428D01*
Y175640D01*
X205837Y174853D01*
X205050D01*
X205837D01*
X206624Y174066D01*
Y173279D01*
X205837Y172492D01*
X204263D01*
X203476Y173279D01*
X210560Y172492D02*
Y177215D01*
X208199Y174853D01*
X211347D01*
X220617Y177215D02*
X223765D01*
X222191D01*
Y172492D01*
X226127D02*
X227701D01*
X228488Y173279D01*
Y174853D01*
X227701Y175640D01*
X226127D01*
X225339Y174853D01*
Y173279D01*
X226127Y172492D01*
X230849Y176428D02*
Y175640D01*
X230062D01*
X231637D01*
X230849D01*
Y173279D01*
X231637Y172492D01*
X234785Y175640D02*
X236359D01*
X237147Y174853D01*
Y172492D01*
X234785D01*
X233998Y173279D01*
X234785Y174066D01*
X237147D01*
X238721Y172492D02*
X240295D01*
X239508D01*
Y177215D01*
X238721D01*
X327569Y164617D02*
X330717D01*
X327569Y166192D02*
X330717D01*
X340163Y166979D02*
X339376Y167766D01*
X337802D01*
X337014Y166979D01*
Y163830D01*
X337802Y163043D01*
X339376D01*
X340163Y163830D01*
X342525Y166192D02*
X344099D01*
X344886Y165404D01*
Y163043D01*
X342525D01*
X341737Y163830D01*
X342525Y164617D01*
X344886D01*
X346460Y163043D02*
X348035D01*
X347247D01*
Y167766D01*
X346460D01*
X353544Y166192D02*
X351183D01*
X350396Y165404D01*
Y163830D01*
X351183Y163043D01*
X353544D01*
X355119Y166192D02*
Y163830D01*
X355906Y163043D01*
X358267D01*
Y166192D01*
X359842Y163043D02*
X361416D01*
X360629D01*
Y167766D01*
X359842D01*
X364565Y166192D02*
X366139D01*
X366926Y165404D01*
Y163043D01*
X364565D01*
X363777Y163830D01*
X364565Y164617D01*
X366926D01*
X369287Y166979D02*
Y166192D01*
X368500D01*
X370075D01*
X369287D01*
Y163830D01*
X370075Y163043D01*
X374798D02*
X373223D01*
X372436Y163830D01*
Y165404D01*
X373223Y166192D01*
X374798D01*
X375585Y165404D01*
Y164617D01*
X372436D01*
X380308Y167766D02*
Y163043D01*
X377946D01*
X377159Y163830D01*
Y165404D01*
X377946Y166192D01*
X380308D01*
X387392Y163043D02*
Y166979D01*
Y165404D01*
X386605D01*
X388179D01*
X387392D01*
Y166979D01*
X388179Y167766D01*
X390540Y166192D02*
Y163043D01*
Y164617D01*
X391328Y165404D01*
X392115Y166192D01*
X392902D01*
X396051Y163043D02*
X397625D01*
X398412Y163830D01*
Y165404D01*
X397625Y166192D01*
X396051D01*
X395263Y165404D01*
Y163830D01*
X396051Y163043D01*
X399986D02*
Y166192D01*
X400773D01*
X401560Y165404D01*
Y163043D01*
Y165404D01*
X402348Y166192D01*
X403135Y165404D01*
Y163043D01*
X410219Y166979D02*
Y166192D01*
X409432D01*
X411006D01*
X410219D01*
Y163830D01*
X411006Y163043D01*
X414155D02*
X415729D01*
X416516Y163830D01*
Y165404D01*
X415729Y166192D01*
X414155D01*
X413368Y165404D01*
Y163830D01*
X414155Y163043D01*
X418878D02*
X420452D01*
X421239Y163830D01*
Y165404D01*
X420452Y166192D01*
X418878D01*
X418091Y165404D01*
Y163830D01*
X418878Y163043D01*
X422814D02*
X424388D01*
X423601D01*
Y167766D01*
X422814D01*
X431472Y163043D02*
X433834D01*
X434621Y163830D01*
X433834Y164617D01*
X432259D01*
X431472Y165404D01*
X432259Y166192D01*
X434621D01*
X436982Y166979D02*
Y166192D01*
X436195D01*
X437769D01*
X436982D01*
Y163830D01*
X437769Y163043D01*
X440918Y166192D02*
X442492D01*
X443279Y165404D01*
Y163043D01*
X440918D01*
X440131Y163830D01*
X440918Y164617D01*
X443279D01*
X444854Y166192D02*
Y163043D01*
Y164617D01*
X445641Y165404D01*
X446428Y166192D01*
X447215D01*
X450364Y166979D02*
Y166192D01*
X449577D01*
X451151D01*
X450364D01*
Y163830D01*
X451151Y163043D01*
X461384Y166192D02*
X459022D01*
X458235Y165404D01*
Y163830D01*
X459022Y163043D01*
X461384D01*
X465319D02*
X463745D01*
X462958Y163830D01*
Y165404D01*
X463745Y166192D01*
X465319D01*
X466107Y165404D01*
Y164617D01*
X462958D01*
X467681Y163043D02*
Y166192D01*
X470042D01*
X470829Y165404D01*
Y163043D01*
X473191Y166979D02*
Y166192D01*
X472404D01*
X473978D01*
X473191D01*
Y163830D01*
X473978Y163043D01*
X476339Y166192D02*
Y163043D01*
Y164617D01*
X477127Y165404D01*
X477914Y166192D01*
X478701D01*
X483424Y163043D02*
X481849D01*
X481062Y163830D01*
Y165404D01*
X481849Y166192D01*
X483424D01*
X484211Y165404D01*
Y164617D01*
X481062D01*
X490508Y161469D02*
Y166192D01*
X492870D01*
X493657Y165404D01*
Y163830D01*
X492870Y163043D01*
X490508D01*
X496018D02*
X497592D01*
X498380Y163830D01*
Y165404D01*
X497592Y166192D01*
X496018D01*
X495231Y165404D01*
Y163830D01*
X496018Y163043D01*
X499954D02*
X502315D01*
X503102Y163830D01*
X502315Y164617D01*
X500741D01*
X499954Y165404D01*
X500741Y166192D01*
X503102D01*
X504677Y163043D02*
X506251D01*
X505464D01*
Y166192D01*
X504677D01*
X509400Y166979D02*
Y166192D01*
X508612D01*
X510187D01*
X509400D01*
Y163830D01*
X510187Y163043D01*
X512548D02*
X514122D01*
X513335D01*
Y166192D01*
X512548D01*
X517271Y163043D02*
X518845D01*
X519632Y163830D01*
Y165404D01*
X518845Y166192D01*
X517271D01*
X516484Y165404D01*
Y163830D01*
X517271Y163043D01*
X521207D02*
Y166192D01*
X523568D01*
X524355Y165404D01*
Y163043D01*
X531440Y166979D02*
Y166192D01*
X530653D01*
X532227D01*
X531440D01*
Y163830D01*
X532227Y163043D01*
X535375D02*
X536950D01*
X537737Y163830D01*
Y165404D01*
X536950Y166192D01*
X535375D01*
X534588Y165404D01*
Y163830D01*
X535375Y163043D01*
X544821Y166979D02*
Y166192D01*
X544034D01*
X545608D01*
X544821D01*
Y163830D01*
X545608Y163043D01*
X548757D02*
X550331D01*
X551118Y163830D01*
Y165404D01*
X550331Y166192D01*
X548757D01*
X547970Y165404D01*
Y163830D01*
X548757Y163043D01*
X553480D02*
X555054D01*
X555841Y163830D01*
Y165404D01*
X555054Y166192D01*
X553480D01*
X552693Y165404D01*
Y163830D01*
X553480Y163043D01*
X557416D02*
X558990D01*
X558203D01*
Y167766D01*
X557416D01*
X568436Y163043D02*
X566861D01*
X566074Y163830D01*
Y165404D01*
X566861Y166192D01*
X568436D01*
X569223Y165404D01*
Y164617D01*
X566074D01*
X570797Y163043D02*
Y166192D01*
X573159D01*
X573946Y165404D01*
Y163043D01*
X578669Y167766D02*
Y163043D01*
X576307D01*
X575520Y163830D01*
Y165404D01*
X576307Y166192D01*
X578669D01*
X588114D02*
X585753D01*
X584966Y165404D01*
Y163830D01*
X585753Y163043D01*
X588114D01*
X592050D02*
X590476D01*
X589689Y163830D01*
Y165404D01*
X590476Y166192D01*
X592050D01*
X592837Y165404D01*
Y164617D01*
X589689D01*
X594412Y163043D02*
Y166192D01*
X596773D01*
X597560Y165404D01*
Y163043D01*
X599922Y166979D02*
Y166192D01*
X599134D01*
X600709D01*
X599922D01*
Y163830D01*
X600709Y163043D01*
X603070Y166192D02*
Y163043D01*
Y164617D01*
X603857Y165404D01*
X604644Y166192D01*
X605432D01*
X610154Y163043D02*
X608580D01*
X607793Y163830D01*
Y165404D01*
X608580Y166192D01*
X610154D01*
X610942Y165404D01*
Y164617D01*
X607793D01*
X617239Y161469D02*
Y166192D01*
X619600D01*
X620387Y165404D01*
Y163830D01*
X619600Y163043D01*
X617239D01*
X622749D02*
X624323D01*
X625110Y163830D01*
Y165404D01*
X624323Y166192D01*
X622749D01*
X621962Y165404D01*
Y163830D01*
X622749Y163043D01*
X626685D02*
X629046D01*
X629833Y163830D01*
X629046Y164617D01*
X627472D01*
X626685Y165404D01*
X627472Y166192D01*
X629833D01*
X631407Y163043D02*
X632982D01*
X632195D01*
Y166192D01*
X631407D01*
X636130Y166979D02*
Y166192D01*
X635343D01*
X636917D01*
X636130D01*
Y163830D01*
X636917Y163043D01*
X639279D02*
X640853D01*
X640066D01*
Y166192D01*
X639279D01*
X644002Y163043D02*
X645576D01*
X646363Y163830D01*
Y165404D01*
X645576Y166192D01*
X644002D01*
X643215Y165404D01*
Y163830D01*
X644002Y163043D01*
X647937D02*
Y166192D01*
X650299D01*
X651086Y165404D01*
Y163043D01*
X652660D02*
Y163830D01*
X653447D01*
Y163043D01*
X652660D01*
X327569Y155169D02*
X330717D01*
X327569Y156743D02*
X330717D01*
X337014Y153594D02*
Y158317D01*
X339376D01*
X340163Y157530D01*
Y155956D01*
X339376Y155169D01*
X337014D01*
X338589D02*
X340163Y153594D01*
X342525D02*
X344099D01*
X344886Y154381D01*
Y155956D01*
X344099Y156743D01*
X342525D01*
X341737Y155956D01*
Y154381D01*
X342525Y153594D01*
X346460Y156743D02*
Y154381D01*
X347247Y153594D01*
X349609D01*
Y156743D01*
X351970Y157530D02*
Y156743D01*
X351183D01*
X352757D01*
X351970D01*
Y154381D01*
X352757Y153594D01*
X359842D02*
Y158317D01*
X362203D01*
X362990Y157530D01*
Y155956D01*
X362203Y155169D01*
X359842D01*
X365352Y156743D02*
X366926D01*
X367713Y155956D01*
Y153594D01*
X365352D01*
X364565Y154381D01*
X365352Y155169D01*
X367713D01*
X370075Y157530D02*
Y156743D01*
X369287D01*
X370862D01*
X370075D01*
Y154381D01*
X370862Y153594D01*
X373223Y158317D02*
Y153594D01*
Y155956D01*
X374010Y156743D01*
X375585D01*
X376372Y155956D01*
Y153594D01*
X382669Y158317D02*
Y153594D01*
X385818D01*
X389753D02*
X388179D01*
X387392Y154381D01*
Y155956D01*
X388179Y156743D01*
X389753D01*
X390540Y155956D01*
Y155169D01*
X387392D01*
X392115Y153594D02*
Y156743D01*
X394476D01*
X395263Y155956D01*
Y153594D01*
X398412Y152020D02*
X399199D01*
X399986Y152807D01*
Y156743D01*
X397625D01*
X396838Y155956D01*
Y154381D01*
X397625Y153594D01*
X399986D01*
X402348Y157530D02*
Y156743D01*
X401560D01*
X403135D01*
X402348D01*
Y154381D01*
X403135Y153594D01*
X405496Y158317D02*
Y153594D01*
Y155956D01*
X406283Y156743D01*
X407858D01*
X408645Y155956D01*
Y153594D01*
X414942Y155956D02*
X418091D01*
X416516Y157530D02*
Y154381D01*
X424388Y158317D02*
X427536D01*
X425962D01*
Y153594D01*
X429898D02*
X431472D01*
X432259Y154381D01*
Y155956D01*
X431472Y156743D01*
X429898D01*
X429111Y155956D01*
Y154381D01*
X429898Y153594D01*
X434621D02*
X436195D01*
X436982Y154381D01*
Y155956D01*
X436195Y156743D01*
X434621D01*
X433834Y155956D01*
Y154381D01*
X434621Y153594D01*
X438556D02*
X440131D01*
X439344D01*
Y158317D01*
X438556D01*
X450364Y157530D02*
X449576Y158317D01*
X448002D01*
X447215Y157530D01*
Y156743D01*
X448002Y155956D01*
X449576D01*
X450364Y155169D01*
Y154381D01*
X449576Y153594D01*
X448002D01*
X447215Y154381D01*
X451938Y153594D02*
X453512D01*
X452725D01*
Y156743D01*
X451938D01*
X455874D02*
X459022D01*
X455874Y153594D01*
X459022D01*
X462958D02*
X461384D01*
X460597Y154381D01*
Y155956D01*
X461384Y156743D01*
X462958D01*
X463745Y155956D01*
Y155169D01*
X460597D01*
X470042D02*
X473191D01*
X470042Y156743D02*
X473191D01*
X482637Y157530D02*
X481849Y158317D01*
X480275D01*
X479488Y157530D01*
Y156743D01*
X480275Y155956D01*
X481849D01*
X482637Y155169D01*
Y154381D01*
X481849Y153594D01*
X480275D01*
X479488Y154381D01*
X484211Y153594D02*
X485785D01*
X484998D01*
Y158317D01*
X484211D01*
X488934Y153594D02*
X490508D01*
X491295Y154381D01*
Y155956D01*
X490508Y156743D01*
X488934D01*
X488147Y155956D01*
Y154381D01*
X488934Y153594D01*
X493657Y157530D02*
Y156743D01*
X492870D01*
X494444D01*
X493657D01*
Y154381D01*
X494444Y153594D01*
X501528D02*
X503102D01*
X502315D01*
Y158317D01*
X501528D01*
X507825Y153594D02*
X506251D01*
X505464Y154381D01*
Y155956D01*
X506251Y156743D01*
X507825D01*
X508612Y155956D01*
Y155169D01*
X505464D01*
X510187Y153594D02*
Y156743D01*
X512548D01*
X513335Y155956D01*
Y153594D01*
X516484Y152020D02*
X517271D01*
X518058Y152807D01*
Y156743D01*
X515697D01*
X514910Y155956D01*
Y154381D01*
X515697Y153594D01*
X518058D01*
X520420Y157530D02*
Y156743D01*
X519632D01*
X521207D01*
X520420D01*
Y154381D01*
X521207Y153594D01*
X523568Y158317D02*
Y153594D01*
Y155956D01*
X524355Y156743D01*
X525930D01*
X526717Y155956D01*
Y153594D01*
X533801Y156743D02*
X535375D01*
X536163Y155956D01*
Y153594D01*
X533801D01*
X533014Y154381D01*
X533801Y155169D01*
X536163D01*
X537737Y153594D02*
X540098D01*
X540885Y154381D01*
X540098Y155169D01*
X538524D01*
X537737Y155956D01*
X538524Y156743D01*
X540885D01*
X550331Y158317D02*
Y153594D01*
X547970D01*
X547183Y154381D01*
Y155956D01*
X547970Y156743D01*
X550331D01*
X554267Y153594D02*
X552693D01*
X551905Y154381D01*
Y155956D01*
X552693Y156743D01*
X554267D01*
X555054Y155956D01*
Y155169D01*
X551905D01*
X557416Y153594D02*
Y157530D01*
Y155956D01*
X556628D01*
X558203D01*
X557416D01*
Y157530D01*
X558203Y158317D01*
X560564Y153594D02*
X562138D01*
X561351D01*
Y156743D01*
X560564D01*
X564500Y153594D02*
Y156743D01*
X566861D01*
X567649Y155956D01*
Y153594D01*
X571584D02*
X570010D01*
X569223Y154381D01*
Y155956D01*
X570010Y156743D01*
X571584D01*
X572371Y155956D01*
Y155169D01*
X569223D01*
X577094Y158317D02*
Y153594D01*
X574733D01*
X573946Y154381D01*
Y155956D01*
X574733Y156743D01*
X577094D01*
X583391Y153594D02*
X584966D01*
X584179D01*
Y156743D01*
X583391D01*
X587327Y153594D02*
Y156743D01*
X589689D01*
X590476Y155956D01*
Y153594D01*
X597560Y157530D02*
Y156743D01*
X596773D01*
X598347D01*
X597560D01*
Y154381D01*
X598347Y153594D01*
X600709Y158317D02*
Y153594D01*
Y155956D01*
X601496Y156743D01*
X603070D01*
X603857Y155956D01*
Y153594D01*
X607793D02*
X606219D01*
X605432Y154381D01*
Y155956D01*
X606219Y156743D01*
X607793D01*
X608580Y155956D01*
Y155169D01*
X605432D01*
X614877Y153594D02*
Y158317D01*
X617239D01*
X618026Y157530D01*
Y155956D01*
X617239Y155169D01*
X614877D01*
X622749Y157530D02*
X621962Y158317D01*
X620387D01*
X619600Y157530D01*
Y154381D01*
X620387Y153594D01*
X621962D01*
X622749Y154381D01*
X624323Y158317D02*
Y153594D01*
X626685D01*
X627472Y154381D01*
Y155169D01*
X626685Y155956D01*
X624323D01*
X626685D01*
X627472Y156743D01*
Y157530D01*
X626685Y158317D01*
X624323D01*
X633769Y153594D02*
X635343D01*
X634556D01*
Y158317D01*
X633769D01*
X638492Y156743D02*
X640066D01*
X640853Y155956D01*
Y153594D01*
X638492D01*
X637705Y154381D01*
X638492Y155169D01*
X640853D01*
X642427Y156743D02*
Y154381D01*
X643215Y153594D01*
X645576D01*
Y152807D01*
X644789Y152020D01*
X644002D01*
X645576Y153594D02*
Y156743D01*
X647937Y153594D02*
X649512D01*
X650299Y154381D01*
Y155956D01*
X649512Y156743D01*
X647937D01*
X647150Y155956D01*
Y154381D01*
X647937Y153594D01*
X651873Y156743D02*
Y154381D01*
X652660Y153594D01*
X655022D01*
Y156743D01*
X657383Y157530D02*
Y156743D01*
X656596D01*
X658170D01*
X657383D01*
Y154381D01*
X658170Y153594D01*
D74*
X166380Y203201D02*
G03*
X166380Y203201I-1800J0D01*
G01*
D78*
X265800Y54860D02*
Y56460D01*
X267400D01*
Y54860D01*
X265800D01*
Y22200D02*
Y23800D01*
X267400D01*
Y22200D01*
X265800D01*
X6237Y21612D02*
X5437Y23212D01*
X7037D01*
X6237Y21612D01*
Y55628D02*
X5437Y57228D01*
X7037D01*
X6237Y55628D01*
X21198Y21612D02*
X20398Y23212D01*
X21998D01*
X21198Y21612D01*
Y55628D02*
X20398Y57228D01*
X21998D01*
X21198Y55628D01*
X239160Y7220D02*
X239560Y7620D01*
X239960D01*
X239560Y8020D01*
X239960Y8420D01*
X239560D01*
X239160Y8820D01*
X238760Y8420D01*
X238360D01*
X238760Y8020D01*
X238360Y7620D01*
X238760D01*
X239160Y7220D01*
X239080Y30600D02*
X239480Y31000D01*
X239880D01*
X239480Y31400D01*
X239880Y31800D01*
X239480D01*
X239080Y32200D01*
X238680Y31800D01*
X238280D01*
X238680Y31400D01*
X238280Y31000D01*
X238680D01*
X239080Y30600D01*
X27380Y53000D02*
X27780Y53800D01*
X27380Y54600D01*
X28180Y54200D01*
X28980Y54600D01*
X28580Y53800D01*
X28980Y53000D01*
X28180Y53400D01*
X27380Y53000D01*
X29040Y21160D02*
X29440Y21960D01*
X29040Y22760D01*
X29840Y22360D01*
X30640Y22760D01*
X30240Y21960D01*
X30640Y21160D01*
X29840Y21560D01*
X29040Y21160D01*
X28880Y31440D02*
X29280Y32240D01*
X28880Y33040D01*
X29680Y32640D01*
X30480Y33040D01*
X30080Y32240D01*
X30480Y31440D01*
X29680Y31840D01*
X28880Y31440D01*
X48740Y32680D02*
X49140Y33480D01*
X48740Y34280D01*
X49540Y33880D01*
X50340Y34280D01*
X49940Y33480D01*
X50340Y32680D01*
X49540Y33080D01*
X48740Y32680D01*
X161840Y53360D02*
X162240Y53760D01*
X162640D01*
X162240Y54160D01*
X162640Y54560D01*
X162240D01*
X161840Y54960D01*
X161440Y54560D01*
X161040D01*
X161440Y54160D01*
X161040Y53760D01*
X161440D01*
X161840Y53360D01*
X155320Y46840D02*
X155720Y47240D01*
X156120D01*
X155720Y47640D01*
X156120Y48040D01*
X155720D01*
X155320Y48440D01*
X154920Y48040D01*
X154520D01*
X154920Y47640D01*
X154520Y47240D01*
X154920D01*
X155320Y46840D01*
X168180Y46820D02*
X168580Y47220D01*
X168980D01*
X168580Y47620D01*
X168980Y48020D01*
X168580D01*
X168180Y48420D01*
X167780Y48020D01*
X167380D01*
X167780Y47620D01*
X167380Y47220D01*
X167780D01*
X168180Y46820D01*
X133960Y73520D02*
X134360Y74320D01*
X133960Y75120D01*
X134760Y74720D01*
X135560Y75120D01*
X135160Y74320D01*
X135560Y73520D01*
X134760Y73920D01*
X133960Y73520D01*
X107240Y51180D02*
X107640Y51980D01*
X107240Y52780D01*
X108040Y52380D01*
X108840Y52780D01*
X108440Y51980D01*
X108840Y51180D01*
X108040Y51580D01*
X107240Y51180D01*
X250920Y11980D02*
X251320Y12380D01*
X251720D01*
X251320Y12780D01*
X251720Y13180D01*
X251320D01*
X250920Y13580D01*
X250520Y13180D01*
X250120D01*
X250520Y12780D01*
X250120Y12380D01*
X250520D01*
X250920Y11980D01*
X228280D02*
X228680Y12380D01*
X229080D01*
X228680Y12780D01*
X229080Y13180D01*
X228680D01*
X228280Y13580D01*
X227880Y13180D01*
X227480D01*
X227880Y12780D01*
X227480Y12380D01*
X227880D01*
X228280Y11980D01*
X216960D02*
X217360Y12380D01*
X217760D01*
X217360Y12780D01*
X217760Y13180D01*
X217360D01*
X216960Y13580D01*
X216560Y13180D01*
X216160D01*
X216560Y12780D01*
X216160Y12380D01*
X216560D01*
X216960Y11980D01*
X216700Y26340D02*
X217100Y26740D01*
X217500D01*
X217100Y27140D01*
X217500Y27540D01*
X217100D01*
X216700Y27940D01*
X216300Y27540D01*
X215900D01*
X216300Y27140D01*
X215900Y26740D01*
X216300D01*
X216700Y26340D01*
X228020D02*
X228420Y26740D01*
X228820D01*
X228420Y27140D01*
X228820Y27540D01*
X228420D01*
X228020Y27940D01*
X227620Y27540D01*
X227220D01*
X227620Y27140D01*
X227220Y26740D01*
X227620D01*
X228020Y26340D01*
X250660D02*
X251060Y26740D01*
X251460D01*
X251060Y27140D01*
X251460Y27540D01*
X251060D01*
X250660Y27940D01*
X250260Y27540D01*
X249860D01*
X250260Y27140D01*
X249860Y26740D01*
X250260D01*
X250660Y26340D01*
X52080Y16660D02*
X52480Y17060D01*
X52880D01*
X52480Y17460D01*
X52880Y17860D01*
X52480D01*
X52080Y18260D01*
X51680Y17860D01*
X51280D01*
X51680Y17460D01*
X51280Y17060D01*
X51680D01*
X52080Y16660D01*
X75520Y19500D02*
X75920Y19900D01*
X76320D01*
X75920Y20300D01*
X76320Y20700D01*
X75920D01*
X75520Y21100D01*
X75120Y20700D01*
X74720D01*
X75120Y20300D01*
X74720Y19900D01*
X75120D01*
X75520Y19500D01*
X75340Y36240D02*
Y35840D01*
X76140D01*
Y36240D01*
X76540D01*
Y37040D01*
X76140D01*
Y37440D01*
X75340D01*
Y37040D01*
X74940D01*
Y36240D01*
X75340D01*
X44741Y6408D02*
X45141Y6808D01*
X45541D01*
X45141Y7208D01*
X45541Y7608D01*
X45141D01*
X44741Y8008D01*
X44341Y7608D01*
X43941D01*
X44341Y7208D01*
X43941Y6808D01*
X44341D01*
X44741Y6408D01*
X75000Y4840D02*
X75400Y5240D01*
X75800D01*
X75400Y5640D01*
X75800Y6040D01*
X75400D01*
X75000Y6440D01*
X74600Y6040D01*
X74200D01*
X74600Y5640D01*
X74200Y5240D01*
X74600D01*
X75000Y4840D01*
X28500Y63700D02*
X28900Y64100D01*
X29300D01*
X28900Y64500D01*
X29300Y64900D01*
X28900D01*
X28500Y65300D01*
X28100Y64900D01*
X27700D01*
X28100Y64500D01*
X27700Y64100D01*
X28100D01*
X28500Y63700D01*
X13500Y32700D02*
X13900Y33100D01*
X14300D01*
X13900Y33500D01*
X14300Y33900D01*
X13900D01*
X13500Y34300D01*
X13100Y33900D01*
X12700D01*
X13100Y33500D01*
X12700Y33100D01*
X13100D01*
X13500Y32700D01*
Y44700D02*
X13900Y45100D01*
X14300D01*
X13900Y45500D01*
X14300Y45900D01*
X13900D01*
X13500Y46300D01*
X13100Y45900D01*
X12700D01*
X13100Y45500D01*
X12700Y45100D01*
X13100D01*
X13500Y44700D01*
X162780Y229747D02*
X163680Y231547D01*
X162780Y233347D01*
X164580Y232447D01*
X166380Y233347D01*
X165480Y231547D01*
X166380Y229747D01*
X164580Y230647D01*
X162780Y229747D01*
X163680Y221198D02*
Y220298D01*
X165480D01*
Y221198D01*
X166380D01*
Y222998D01*
X165480D01*
Y223898D01*
X163680D01*
Y222998D01*
X162780D01*
Y221198D01*
X163680D01*
X164580Y210849D02*
X165480Y211749D01*
X166380D01*
X165480Y212649D01*
X166380Y213549D01*
X165480D01*
X164580Y214449D01*
X163680Y213549D01*
X162780D01*
X163680Y212649D01*
X162780Y211749D01*
X163680D01*
X164580Y210849D01*
X162780Y191952D02*
Y195552D01*
X166380D01*
Y191952D01*
X162780D01*
X164580Y182503D02*
X162780Y186103D01*
X166380D01*
X164580Y182503D01*
D79*
X8300Y7500D02*
G03*
X8300Y7500I-800J0D01*
G01*
X18300D02*
G03*
X18300Y7500I-800J0D01*
G01*
X28300D02*
G03*
X28300Y7500I-800J0D01*
G01*
D80*
X166558Y245246D02*
X165614Y246191D01*
X163725D01*
X162780Y245246D01*
Y244302D01*
X163725Y243357D01*
X165614D01*
X166558Y242413D01*
Y241468D01*
X165614Y240523D01*
X163725D01*
X162780Y241468D01*
X168447Y244302D02*
Y241468D01*
X169392Y240523D01*
X172226D01*
Y239579D01*
X171281Y238634D01*
X170337D01*
X172226Y240523D02*
Y244302D01*
X174115Y240523D02*
Y244302D01*
X175059D01*
X176004Y243357D01*
Y240523D01*
Y243357D01*
X176949Y244302D01*
X177893Y243357D01*
Y240523D01*
X179782Y246191D02*
Y240523D01*
X182616D01*
X183561Y241468D01*
Y242413D01*
Y243357D01*
X182616Y244302D01*
X179782D01*
X186394Y240523D02*
X188284D01*
X189228Y241468D01*
Y243357D01*
X188284Y244302D01*
X186394D01*
X185450Y243357D01*
Y241468D01*
X186394Y240523D01*
X191117D02*
X193006D01*
X192062D01*
Y246191D01*
X191117D01*
X203476D02*
Y240523D01*
Y243357D01*
X207254D01*
Y246191D01*
Y240523D01*
X209143D02*
X211032D01*
X210088D01*
Y244302D01*
X209143D01*
X214811Y245246D02*
Y244302D01*
X213866D01*
X215755D01*
X214811D01*
Y241468D01*
X215755Y240523D01*
X228035Y245246D02*
X227090Y246191D01*
X225201D01*
X224256Y245246D01*
Y241468D01*
X225201Y240523D01*
X227090D01*
X228035Y241468D01*
X230869Y240523D02*
X232758D01*
X233702Y241468D01*
Y243357D01*
X232758Y244302D01*
X230869D01*
X229924Y243357D01*
Y241468D01*
X230869Y240523D01*
X235591Y244302D02*
Y241468D01*
X236536Y240523D01*
X239370D01*
Y244302D01*
X241259Y240523D02*
Y244302D01*
X244092D01*
X245037Y243357D01*
Y240523D01*
X247871Y245246D02*
Y244302D01*
X246926D01*
X248815D01*
X247871D01*
Y241468D01*
X248815Y240523D01*
X263063Y246191D02*
X259285D01*
Y243357D01*
X261174D01*
X259285D01*
Y240523D01*
X264952D02*
X266841D01*
X265897D01*
Y244302D01*
X264952D01*
X269675Y240523D02*
Y244302D01*
X272509D01*
X273453Y243357D01*
Y240523D01*
X275342D02*
X277232D01*
X276287D01*
Y244302D01*
X275342D01*
X280065Y240523D02*
X282899D01*
X283844Y241468D01*
X282899Y242413D01*
X281010D01*
X280065Y243357D01*
X281010Y244302D01*
X283844D01*
X285733Y246191D02*
Y240523D01*
Y243357D01*
X286677Y244302D01*
X288567D01*
X289511Y243357D01*
Y240523D01*
X294234D02*
X292345D01*
X291400Y241468D01*
Y243357D01*
X292345Y244302D01*
X294234D01*
X295179Y243357D01*
Y242413D01*
X291400D01*
X300846Y246191D02*
Y240523D01*
X298012D01*
X297068Y241468D01*
Y243357D01*
X298012Y244302D01*
X300846D01*
X308403Y246191D02*
Y240523D01*
Y243357D01*
X312181D01*
Y246191D01*
Y240523D01*
X315015D02*
X316904D01*
X317848Y241468D01*
Y243357D01*
X316904Y244302D01*
X315015D01*
X314070Y243357D01*
Y241468D01*
X315015Y240523D01*
X319738D02*
X321627D01*
X320682D01*
Y246191D01*
X319738D01*
X327294Y240523D02*
X325405D01*
X324461Y241468D01*
Y243357D01*
X325405Y244302D01*
X327294D01*
X328239Y243357D01*
Y242413D01*
X324461D01*
X339574Y245246D02*
X338629Y246191D01*
X336740D01*
X335795Y245246D01*
Y244302D01*
X336740Y243357D01*
X338629D01*
X339574Y242413D01*
Y241468D01*
X338629Y240523D01*
X336740D01*
X335795Y241468D01*
X341463Y240523D02*
X343352D01*
X342407D01*
Y244302D01*
X341463D01*
X346186D02*
X349964D01*
X346186Y240523D01*
X349964D01*
X354687D02*
X352798D01*
X351853Y241468D01*
Y243357D01*
X352798Y244302D01*
X354687D01*
X355631Y243357D01*
Y242413D01*
X351853D01*
X366101Y240523D02*
Y246191D01*
X368934D01*
X369879Y245246D01*
Y243357D01*
X368934Y242413D01*
X366101D01*
X371768Y246191D02*
Y240523D01*
Y243357D01*
X372713Y244302D01*
X374602D01*
X375547Y243357D01*
Y240523D01*
X377436Y244302D02*
Y241468D01*
X378380Y240523D01*
X381214D01*
Y239579D01*
X380269Y238634D01*
X379325D01*
X381214Y240523D02*
Y244302D01*
X383103Y240523D02*
X385937D01*
X386881Y241468D01*
X385937Y242413D01*
X384048D01*
X383103Y243357D01*
X384048Y244302D01*
X386881D01*
X388771Y240523D02*
X390660D01*
X389715D01*
Y244302D01*
X388771D01*
X397272D02*
X394438D01*
X393494Y243357D01*
Y241468D01*
X394438Y240523D01*
X397272D01*
X400105Y244302D02*
X401995D01*
X402939Y243357D01*
Y240523D01*
X400105D01*
X399161Y241468D01*
X400105Y242413D01*
X402939D01*
X404828Y240523D02*
X406718D01*
X405773D01*
Y246191D01*
X404828D01*
X415219D02*
Y240523D01*
X418997D01*
X423720D02*
X421831D01*
X420886Y241468D01*
Y243357D01*
X421831Y244302D01*
X423720D01*
X424664Y243357D01*
Y242413D01*
X420886D01*
X426554Y240523D02*
Y244302D01*
X429387D01*
X430332Y243357D01*
Y240523D01*
X434110Y238634D02*
X435055D01*
X435999Y239579D01*
Y244302D01*
X433166D01*
X432221Y243357D01*
Y241468D01*
X433166Y240523D01*
X435999D01*
X438833Y245246D02*
Y244302D01*
X437889D01*
X439778D01*
X438833D01*
Y241468D01*
X439778Y240523D01*
X442612Y246191D02*
Y240523D01*
Y243357D01*
X443556Y244302D01*
X445445D01*
X446390Y243357D01*
Y240523D01*
X456859D02*
Y246191D01*
X459693D01*
X460637Y245246D01*
Y243357D01*
X459693Y242413D01*
X456859D01*
X458748D02*
X460637Y240523D01*
X463471D02*
X465360D01*
X466305Y241468D01*
Y243357D01*
X465360Y244302D01*
X463471D01*
X462527Y243357D01*
Y241468D01*
X463471Y240523D01*
X468194Y244302D02*
Y241468D01*
X469139Y240523D01*
X471972D01*
Y244302D01*
X474806Y245246D02*
Y244302D01*
X473862D01*
X475751D01*
X474806D01*
Y241468D01*
X475751Y240523D01*
X484252D02*
Y246191D01*
X487085D01*
X488030Y245246D01*
Y243357D01*
X487085Y242413D01*
X484252D01*
X490864Y244302D02*
X492753D01*
X493698Y243357D01*
Y240523D01*
X490864D01*
X489919Y241468D01*
X490864Y242413D01*
X493698D01*
X496531Y245246D02*
Y244302D01*
X495587D01*
X497476D01*
X496531D01*
Y241468D01*
X497476Y240523D01*
X500310Y246191D02*
Y240523D01*
Y243357D01*
X501254Y244302D01*
X503143D01*
X504088Y243357D01*
Y240523D01*
X511645Y246191D02*
Y240523D01*
X515423D01*
X520146D02*
X518257D01*
X517312Y241468D01*
Y243357D01*
X518257Y244302D01*
X520146D01*
X521090Y243357D01*
Y242413D01*
X517312D01*
X522979Y240523D02*
Y244302D01*
X525813D01*
X526758Y243357D01*
Y240523D01*
X530536Y238634D02*
X531481D01*
X532425Y239579D01*
Y244302D01*
X529592D01*
X528647Y243357D01*
Y241468D01*
X529592Y240523D01*
X532425D01*
X535259Y245246D02*
Y244302D01*
X534314D01*
X536203D01*
X535259D01*
Y241468D01*
X536203Y240523D01*
X539037Y246191D02*
Y240523D01*
Y243357D01*
X539982Y244302D01*
X541871D01*
X542815Y243357D01*
Y240523D01*
X553285D02*
Y246191D01*
X556119D01*
X557063Y245246D01*
Y243357D01*
X556119Y242413D01*
X553285D01*
X558952Y240523D02*
X560841D01*
X559897D01*
Y246191D01*
X558952D01*
X564620Y244302D02*
X566509D01*
X567453Y243357D01*
Y240523D01*
X564620D01*
X563675Y241468D01*
X564620Y242413D01*
X567453D01*
X570287Y245246D02*
Y244302D01*
X569343D01*
X571232D01*
X570287D01*
Y241468D01*
X571232Y240523D01*
X576899D02*
X575010D01*
X574065Y241468D01*
Y243357D01*
X575010Y244302D01*
X576899D01*
X577844Y243357D01*
Y242413D01*
X574065D01*
X583511Y246191D02*
Y240523D01*
X580678D01*
X579733Y241468D01*
Y243357D01*
X580678Y244302D01*
X583511D01*
X593981Y246191D02*
Y240523D01*
Y243357D01*
X597759D01*
Y246191D01*
Y240523D01*
X600593D02*
X602482D01*
X603426Y241468D01*
Y243357D01*
X602482Y244302D01*
X600593D01*
X599648Y243357D01*
Y241468D01*
X600593Y240523D01*
X605315D02*
X607205D01*
X606260D01*
Y246191D01*
X605315D01*
X612872Y240523D02*
X610983D01*
X610038Y241468D01*
Y243357D01*
X610983Y244302D01*
X612872D01*
X613817Y243357D01*
Y242413D01*
X610038D01*
X621373Y246191D02*
X625152D01*
X623262D01*
Y240523D01*
X627041Y244302D02*
Y241468D01*
X627985Y240523D01*
X630819D01*
Y239579D01*
X629875Y238634D01*
X628930D01*
X630819Y240523D02*
Y244302D01*
X632708Y238634D02*
Y244302D01*
X635542D01*
X636486Y243357D01*
Y241468D01*
X635542Y240523D01*
X632708D01*
X641209D02*
X639320D01*
X638376Y241468D01*
Y243357D01*
X639320Y244302D01*
X641209D01*
X642154Y243357D01*
Y242413D01*
X638376D01*
X155511Y249027D02*
X652623D01*
X155511Y236272D02*
X652623D01*
X155511Y249027D02*
Y170130D01*
X652623Y249027D02*
Y170130D01*
X199841Y249027D02*
Y170130D01*
X255650Y249027D02*
Y170130D01*
X362466Y249027D02*
Y170130D01*
X453224Y249027D02*
Y170130D01*
X549650Y249027D02*
Y170130D01*
X590346Y249027D02*
Y170130D01*
X155511Y179578D02*
X652623D01*
X155511Y170130D02*
X652623D01*
D81*
X165929Y166979D02*
X165141Y167766D01*
X163567D01*
X162780Y166979D01*
Y166192D01*
X163567Y165404D01*
X165141D01*
X165929Y164617D01*
Y163830D01*
X165141Y163043D01*
X163567D01*
X162780Y163830D01*
X167503Y163043D02*
X169077D01*
X168290D01*
Y167766D01*
X167503D01*
X172226Y163043D02*
X173800D01*
X174587Y163830D01*
Y165404D01*
X173800Y166192D01*
X172226D01*
X171439Y165404D01*
Y163830D01*
X172226Y163043D01*
X176949Y166979D02*
Y166192D01*
X176162D01*
X177736D01*
X176949D01*
Y163830D01*
X177736Y163043D01*
X187969Y167766D02*
Y163043D01*
X185607D01*
X184820Y163830D01*
Y165404D01*
X185607Y166192D01*
X187969D01*
X191904Y163043D02*
X190330D01*
X189543Y163830D01*
Y165404D01*
X190330Y166192D01*
X191904D01*
X192692Y165404D01*
Y164617D01*
X189543D01*
X195053Y163043D02*
Y166979D01*
Y165404D01*
X194266D01*
X195840D01*
X195053D01*
Y166979D01*
X195840Y167766D01*
X198202Y163043D02*
X199776D01*
X198989D01*
Y166192D01*
X198202D01*
X202137Y163043D02*
Y166192D01*
X204499D01*
X205286Y165404D01*
Y163043D01*
X206860D02*
X208435D01*
X207647D01*
Y166192D01*
X206860D01*
X211583Y166979D02*
Y166192D01*
X210796D01*
X212370D01*
X211583D01*
Y163830D01*
X212370Y163043D01*
X214732D02*
X216306D01*
X215519D01*
Y166192D01*
X214732D01*
X219455Y163043D02*
X221029D01*
X221816Y163830D01*
Y165404D01*
X221029Y166192D01*
X219455D01*
X218668Y165404D01*
Y163830D01*
X219455Y163043D01*
X223390D02*
Y166192D01*
X225752D01*
X226539Y165404D01*
Y163043D01*
X228113D02*
X230475D01*
X231262Y163830D01*
X230475Y164617D01*
X228900D01*
X228113Y165404D01*
X228900Y166192D01*
X231262D01*
X237559D02*
X238346D01*
Y165404D01*
X237559D01*
Y166192D01*
Y163830D02*
X238346D01*
Y163043D01*
X237559D01*
Y163830D01*
X248415Y163043D02*
Y167766D01*
X250777D01*
X251564Y166979D01*
Y165404D01*
X250777Y164617D01*
X248415D01*
X249990D02*
X251564Y163043D01*
X253925D02*
X255500D01*
X256287Y163830D01*
Y165404D01*
X255500Y166192D01*
X253925D01*
X253138Y165404D01*
Y163830D01*
X253925Y163043D01*
X257861Y166192D02*
Y163830D01*
X258648Y163043D01*
X261010D01*
Y166192D01*
X263371Y166979D02*
Y166192D01*
X262584D01*
X264158D01*
X263371D01*
Y163830D01*
X264158Y163043D01*
X271243D02*
Y167766D01*
X273604D01*
X274391Y166979D01*
Y165404D01*
X273604Y164617D01*
X271243D01*
X276753Y166192D02*
X278327D01*
X279114Y165404D01*
Y163043D01*
X276753D01*
X275966Y163830D01*
X276753Y164617D01*
X279114D01*
X281476Y166979D02*
Y166192D01*
X280688D01*
X282263D01*
X281476D01*
Y163830D01*
X282263Y163043D01*
X284624Y167766D02*
Y163043D01*
Y165404D01*
X285411Y166192D01*
X286986D01*
X287773Y165404D01*
Y163043D01*
X294070Y167766D02*
Y163043D01*
X297218D01*
X301154D02*
X299580D01*
X298793Y163830D01*
Y165404D01*
X299580Y166192D01*
X301154D01*
X301941Y165404D01*
Y164617D01*
X298793D01*
X303516Y163043D02*
Y166192D01*
X305877D01*
X306664Y165404D01*
Y163043D01*
X309813Y161469D02*
X310600D01*
X311387Y162256D01*
Y166192D01*
X309026D01*
X308239Y165404D01*
Y163830D01*
X309026Y163043D01*
X311387D01*
X313749Y166979D02*
Y166192D01*
X312962D01*
X314536D01*
X313749D01*
Y163830D01*
X314536Y163043D01*
X316897Y167766D02*
Y163043D01*
Y165404D01*
X317684Y166192D01*
X319259D01*
X320046Y165404D01*
Y163043D01*
X248415Y153594D02*
Y158317D01*
X250777D01*
X251564Y157530D01*
Y155956D01*
X250777Y155169D01*
X248415D01*
X253138Y158317D02*
Y153594D01*
Y155956D01*
X253925Y156743D01*
X255500D01*
X256287Y155956D01*
Y153594D01*
X257861Y156743D02*
Y154381D01*
X258648Y153594D01*
X261010D01*
Y152807D01*
X260223Y152020D01*
X259436D01*
X261010Y153594D02*
Y156743D01*
X262584Y153594D02*
X264946D01*
X265733Y154381D01*
X264946Y155169D01*
X263371D01*
X262584Y155956D01*
X263371Y156743D01*
X265733D01*
X267307Y153594D02*
X268881D01*
X268094D01*
Y156743D01*
X267307D01*
X274391D02*
X272030D01*
X271243Y155956D01*
Y154381D01*
X272030Y153594D01*
X274391D01*
X276753Y156743D02*
X278327D01*
X279114Y155956D01*
Y153594D01*
X276753D01*
X275966Y154381D01*
X276753Y155169D01*
X279114D01*
X280688Y153594D02*
X282263D01*
X281476D01*
Y158317D01*
X280688D01*
X289347D02*
Y153594D01*
X292496D01*
X296431D02*
X294857D01*
X294070Y154381D01*
Y155956D01*
X294857Y156743D01*
X296431D01*
X297218Y155956D01*
Y155169D01*
X294070D01*
X298793Y153594D02*
Y156743D01*
X301154D01*
X301941Y155956D01*
Y153594D01*
X305090Y152020D02*
X305877D01*
X306664Y152807D01*
Y156743D01*
X304303D01*
X303516Y155956D01*
Y154381D01*
X304303Y153594D01*
X306664D01*
X309026Y157530D02*
Y156743D01*
X308239D01*
X309813D01*
X309026D01*
Y154381D01*
X309813Y153594D01*
X312174Y158317D02*
Y153594D01*
Y155956D01*
X312962Y156743D01*
X314536D01*
X315323Y155956D01*
Y153594D01*
M02*
