G04*
G04 #@! TF.GenerationSoftware,Altium Limited,Altium Designer,22.1.2 (22)*
G04*
G04 Layer_Color=65535*
%FSLAX25Y25*%
%MOIN*%
G70*
G04*
G04 #@! TF.SameCoordinates,174BC2DA-B873-4BC2-8B21-C8E9C5FF9B9E*
G04*
G04*
G04 #@! TF.FilePolarity,Positive*
G04*
G01*
G75*
%ADD10C,0.01000*%
D10*
X88280Y40986D02*
Y36263D01*
X90641D01*
X91429Y37050D01*
Y38624D01*
X90641Y39411D01*
X88280D01*
X93003Y36263D02*
Y40986D01*
X95364D01*
X96151Y40199D01*
Y37050D01*
X95364Y36263D01*
X93003D01*
X103236Y37050D02*
Y37837D01*
X102449D01*
X104023D01*
X103236D01*
Y40199D01*
X104023Y40986D01*
X107171D02*
X108746D01*
X109533Y40199D01*
Y38624D01*
X108746Y37837D01*
X107171D01*
X106384Y38624D01*
Y40199D01*
X107171Y40986D01*
X115830Y36263D02*
Y40986D01*
X118192D01*
X118979Y40199D01*
Y39411D01*
Y38624D01*
X118192Y37837D01*
X115830D01*
X121340D02*
X122914D01*
X123702Y38624D01*
Y40986D01*
X121340D01*
X120553Y40199D01*
X121340Y39411D01*
X123702D01*
X125276Y37837D02*
Y40986D01*
Y39411D01*
X126063Y38624D01*
X126850Y37837D01*
X127637D01*
X129999D02*
Y40986D01*
Y39411D01*
X130786Y38624D01*
X131573Y37837D01*
X132360D01*
X137083Y40986D02*
X135509D01*
X134722Y40199D01*
Y38624D01*
X135509Y37837D01*
X137083D01*
X137870Y38624D01*
Y39411D01*
X134722D01*
X139444Y40986D02*
X141019D01*
X140232D01*
Y36263D01*
X139444D01*
X148890Y37837D02*
X150465D01*
X151252Y38624D01*
Y40986D01*
X148890D01*
X148103Y40199D01*
X148890Y39411D01*
X151252D01*
X155975Y36263D02*
Y40986D01*
X153613D01*
X152826Y40199D01*
Y38624D01*
X153613Y37837D01*
X155975D01*
X158336D02*
X159910D01*
X160697Y38624D01*
Y40986D01*
X158336D01*
X157549Y40199D01*
X158336Y39411D01*
X160697D01*
X162272Y42560D02*
Y37837D01*
X164633D01*
X165420Y38624D01*
Y40199D01*
X164633Y40986D01*
X162272D01*
X167782Y37050D02*
Y37837D01*
X166995D01*
X168569D01*
X167782D01*
Y40199D01*
X168569Y40986D01*
X173292D02*
X171718D01*
X170930Y40199D01*
Y38624D01*
X171718Y37837D01*
X173292D01*
X174079Y38624D01*
Y39411D01*
X170930D01*
X175653Y37837D02*
Y40986D01*
Y39411D01*
X176440Y38624D01*
X177228Y37837D01*
X178015D01*
M02*
